<?xml version="1.0" encoding="UTF-8" standalone="no"?>
<svg
   xmlns:dc="http://purl.org/dc/elements/1.1/"
   xmlns:cc="http://creativecommons.org/ns#"
   xmlns:rdf="http://www.w3.org/1999/02/22-rdf-syntax-ns#"
   xmlns:svg="http://www.w3.org/2000/svg"
   xmlns="http://www.w3.org/2000/svg"
   viewBox="0 0 883.28003 943.30664"
   height="943.30664"
   width="883.28003"
   xml:space="preserve"
   id="svg2"
   version="1.1"><metadata
     id="metadata8"><rdf:RDF><cc:Work
         rdf:about=""><dc:format>image/svg+xml</dc:format><dc:type
           rdf:resource="http://purl.org/dc/dcmitype/StillImage" /></cc:Work></rdf:RDF></metadata><defs
     id="defs6" /><g
     transform="matrix(1.3333333,0,0,-1.3333333,0,943.30667)"
     id="g10"><g
       transform="scale(0.1)"
       id="g12"><path
         id="path14"
         style="fill:#231f20;fill-opacity:1;fill-rule:nonzero;stroke:none"
         d="M 1468.16,28.1289 C 1451.24,10.4219 1430.98,1.16016 1407.38,0.378906 V 34.4609 c 12.2,0.6094 22.64,6.5196 31.32,17.7579 4.3,5.5195 7.58,11.5703 9.87,18.1601 l 36.3,-18.8281 c -4.2,-8.4219 -9.78,-16.211 -16.71,-23.4219 z M 1438.7,137.34 c -8.68,11.14 -19.12,17.019 -31.32,17.629 v 34.633 c 23.6,-0.801 43.86,-10.02 60.78,-27.653 8.6,-9.027 15.09,-19 19.48,-29.867 l -37.37,-18.434 c -2.19,8.774 -6.05,16.672 -11.57,23.692 z m -38.16,17.371 c -10.96,-1.313 -20.48,-7.121 -28.55,-17.371 -9.21,-11.75 -13.82,-25.969 -13.82,-42.6291 0,-16.582 4.61,-30.7304 13.82,-42.4921 8.07,-10.3672 17.59,-16.1875 28.55,-17.5079 V 0.5 c -23.25,0.87891 -43.2,10.0898 -59.88,27.6289 -17.61,18.4414 -26.43,40.7109 -26.43,66.8516 0,26.1405 8.82,48.4495 26.43,66.9685 16.68,17.449 36.63,26.633 59.88,27.5 v -34.738" /><path
         id="path16"
         style="fill:#231f20;fill-opacity:1;fill-rule:nonzero;stroke:none"
         d="m 1628.4,85.2383 c 3.33,-3.4297 6.53,-8.3867 9.6,-14.8594 1.32,-1.4101 2.45,-7.0078 3.43,-16.8398 l 1.31,-6.711 3.94,-20.8086 c 0.89,-2.1797 2.03,-6.3984 3.42,-12.6406 1.5,-2.2695 4.17,-6.42968 8.03,-12.488275 l -44.86,-0.25 c -1.49,0 -4.17,5.347655 -8.02,16.058575 -0.8,1.3008 -3.04,13.8125 -6.72,37.5 -1.58,5.6094 -5.18,10.0703 -10.8,13.4219 -5.25,1.8398 -18.15,2.7578 -38.66,2.7578 v 34.2031 h 34.33 c 13.43,4.727 20.13,13.59 20.13,26.59 v 3.289 c -2.99,14.098 -11.05,21.418 -24.21,21.969 h -30.25 v 33.531 h 30.25 c 25.34,0 43.72,-6.871 55.13,-20.652 8.06,-11.758 12.1,-24.071 12.1,-36.957 v -2.52 c 0,-14.723 -4.25,-27.664 -12.76,-38.8125 -1.57,-2.0898 -3.38,-4.0195 -5.39,-5.7812 z M 1542.23,0.378906 h -42.91 V 189.449 h 42.91 V 0.378906" /><path
         id="path18"
         style="fill:#231f20;fill-opacity:1;fill-rule:nonzero;stroke:none"
         d="M 1808.23,35.3594 V 0.640625 h -88.41 V 35.3594 Z m -7.36,82.2426 V 82.8594 h -81.18 v 34.7426 z m 6.97,71.449 v -34.75 h -88.41 v 34.75 z M 1712.05,0.378906 h -42.89 V 189.449 h 42.89 V 0.378906" /><path
         id="path20"
         style="fill:#231f20;fill-opacity:1;fill-rule:nonzero;stroke:none"
         d="M 1925.05,189.051 1991.76,0.378906 h -48.69 L 1930.44,40.5 h -52.23 l 10.14,34.8789 h 32.1 v 0.6328 l -19.48,69.4763 h -0.65 L 1859.53,0.378906 h -38.16 V 27.75 l 54.86,161.301 h 48.82" /><path
         id="path22"
         style="fill:#231f20;fill-opacity:1;fill-rule:nonzero;stroke:none"
         d="m 2093.32,0.769531 h -42.91 V 146.941 h 42.91 z M 2141.08,188.66 v -34.75 h -140.52 v 34.75 h 140.52" /><path
         id="path24"
         style="fill:#231f20;fill-opacity:1;fill-rule:nonzero;stroke:none"
         d="M 2294.6,35.3594 V 0.640625 h -88.43 V 35.3594 Z m -7.37,82.2426 V 82.8594 h -81.19 v 34.7426 z m 6.96,71.449 v -34.75 h -88.41 v 34.75 z M 2198.41,0.378906 h -42.89 V 189.449 h 42.89 V 0.378906" /><path
         id="path26"
         style="fill:#231f20;fill-opacity:1;fill-rule:nonzero;stroke:none"
         d="m 2411.93,132.199 c -2.98,14.742 -11.05,22.242 -24.22,22.512 l -30.24,0.379 v 34.871 h 30.24 c 25.36,0 43.74,-7.152 55.14,-21.441 8.07,-12.27 12.11,-25.09 12.11,-38.418 V 60.3789 c 0,-13.3476 -4.04,-26.1484 -12.11,-38.4101 C 2431.45,7.66016 2413.07,0.5 2387.71,0.5 h -30.24 v 34.8594 l 30.24,0.4219 c 13.17,0.25 21.24,7.7382 24.22,22.4882 z M 2350.62,0.378906 h -42.91 V 189.449 h 42.91 V 0.378906" /><path
         id="path28"
         style="fill:#231f20;fill-opacity:1;fill-rule:nonzero;stroke:none"
         d="m 2587.14,189.449 h 0.53 c 30.35,0 49.52,-10.789 57.51,-32.379 1.83,-4.289 2.75,-9.25 2.75,-14.859 v -3.289 c 0.09,-4.813 -1.05,-8.891 -3.42,-12.231 -2.81,-8.261 -7.45,-14.961 -13.94,-20.14 l -6.05,-3.422 -3.16,-1.039 c 3.42,-1.852 6.22,-3.2892 8.41,-4.3517 13.34,-8 20.94,-19.8594 22.77,-35.6485 0.43,-1.75 0.66,-3.8203 0.66,-6.1992 -0.7,-11.2226 -1.79,-17.6992 -3.28,-19.4609 -0.89,-4.7383 -4,-10.3711 -9.34,-16.8477 -6.32,-8.9414 -17.73,-15.25387 -34.23,-18.941375 L 2595.05,0 h -0.66 c -0.87,0 -3.29,0.0195313 -7.25,0.101563 L 2547.69,0 v 34.4609 h 44.07 c 11.31,3.668 17.1,10.5977 17.38,20.7891 v 5.5195 c 0.69,6.8203 -2.44,12.4493 -9.35,16.8399 -1.4,2.1797 -5.62,3.5898 -12.65,4.1992 l -39.32,0.2734 0.11,35.41 h 39.21 c 1.6,0.328 3.79,0.508 6.59,0.508 7.98,3.43 11.96,9.691 11.96,18.82 l -0.65,4.739 -1.3,3.281 h -0.67 c -3.51,5.101 -8.82,7.992 -15.93,8.699 l -39.72,-0.269 0.27,36.332 39.45,-0.153" /><path
         id="path30"
         style="fill:#231f20;fill-opacity:1;fill-rule:nonzero;stroke:none"
         d="m 2719.1,91.9414 56.83,97.2386 h 47.24 L 2762.13,84.7109 V 0.769531 h -42.9 z m -53.42,97.2386 h 47.24 l 27.88,-47.75 -23.8,-40.008 -51.32,87.758" /><path
         id="path32"
         style="fill:#231f20;fill-opacity:1;fill-rule:nonzero;stroke:none"
         d="m 3006.29,72.75 42.24,115.91 h 40.78 L 3020.63,0.238281 h -14.34 z m -8.03,-72.371094 h -13.81 L 2915.64,189.051 h 40.78 L 2998.26,74.3203 V 0.378906" /><path
         id="path34"
         style="fill:#231f20;fill-opacity:1;fill-rule:nonzero;stroke:none"
         d="M 3236.91,35.3594 V 0.640625 h -88.42 V 35.3594 Z m -7.38,82.2426 V 82.8594 h -81.17 v 34.7426 z m 6.98,71.449 v -34.75 h -88.41 v 34.75 z M 3140.71,0.378906 h -42.87 V 189.449 h 42.87 V 0.378906" /><path
         id="path36"
         style="fill:#231f20;fill-opacity:1;fill-rule:nonzero;stroke:none"
         d="M 3403.99,28.1289 C 3387.06,10.4219 3366.81,1.16016 3343.2,0.378906 V 34.4609 c 12.2,0.6094 22.63,6.5196 31.3,17.7579 4.31,5.5195 7.6,11.5703 9.88,18.1601 l 36.31,-18.8281 c -4.21,-8.4219 -9.77,-16.211 -16.7,-23.4219 z M 3374.5,137.34 c -8.67,11.14 -19.1,17.019 -31.3,17.629 v 34.633 c 23.61,-0.801 43.86,-10.02 60.79,-27.653 8.6,-9.027 15.06,-19 19.48,-29.867 l -37.38,-18.434 c -2.19,8.774 -6.04,16.672 -11.59,23.692 z m -38.13,17.371 c -10.96,-1.313 -20.48,-7.121 -28.56,-17.371 -9.21,-11.75 -13.81,-25.969 -13.81,-42.6291 0,-16.582 4.6,-30.7304 13.81,-42.4921 8.08,-10.3672 17.6,-16.1875 28.56,-17.5079 V 0.5 c -23.25,0.87891 -43.21,10.0898 -59.88,27.6289 -17.63,18.4414 -26.44,40.7109 -26.44,66.8516 0,26.1405 8.81,48.4495 26.44,66.9685 16.67,17.449 36.63,26.633 59.88,27.5 v -34.738" /><path
         id="path38"
         style="fill:#231f20;fill-opacity:1;fill-rule:nonzero;stroke:none"
         d="m 3527.53,0.769531 h -42.92 V 146.941 h 42.92 z M 3575.26,188.66 v -34.75 h -140.5 v 34.75 h 140.5" /><path
         id="path40"
         style="fill:#231f20;fill-opacity:1;fill-rule:nonzero;stroke:none"
         d="m 3682.87,34.4609 c 12.21,0.6094 22.64,6.5196 31.32,17.7579 9.21,11.7617 13.82,25.9101 13.82,42.4921 0,16.6601 -4.61,30.8791 -13.82,42.6291 -8.68,11.14 -19.11,17.019 -31.32,17.629 v 34.633 c 23.59,-0.801 43.85,-10.02 60.77,-27.653 17.63,-18.519 26.47,-40.828 26.47,-66.9685 0,-26.1407 -8.84,-48.4102 -26.47,-66.8516 -16.92,-17.707 -37.18,-26.96874 -60.77,-27.749994 z m -6.84,120.2501 c -10.96,-1.313 -20.48,-7.121 -28.56,-17.371 -9.21,-11.75 -13.81,-25.969 -13.81,-42.6291 0,-16.582 4.6,-30.7304 13.81,-42.4921 8.08,-10.3672 17.6,-16.1875 28.56,-17.5079 V 0.5 c -23.23,0.87891 -43.19,10.0898 -59.88,27.6289 -17.61,18.4414 -26.42,40.7109 -26.42,66.8516 0,26.1405 8.81,48.4495 26.42,66.9685 16.69,17.449 36.65,26.633 59.88,27.5 v -34.738" /><path
         id="path42"
         style="fill:#231f20;fill-opacity:1;fill-rule:nonzero;stroke:none"
         d="m 3911.89,85.2383 c 3.35,-3.4297 6.55,-8.3867 9.62,-14.8594 1.32,-1.4101 2.45,-7.0078 3.42,-16.8398 l 1.34,-6.711 3.93,-20.8086 c 0.86,-2.1797 2.01,-6.3984 3.4,-12.6406 1.5,-2.2695 4.18,-6.42968 8.05,-12.488275 l -44.86,-0.25 c -1.51,0 -4.17,5.347655 -8.04,16.058575 -0.78,1.3008 -3.01,13.8125 -6.71,37.5 -1.56,5.6094 -5.17,10.0703 -10.79,13.4219 -5.24,1.8398 -18.14,2.7578 -38.69,2.7578 v 34.2031 h 34.34 c 13.42,4.727 20.13,13.59 20.13,26.59 v 3.289 c -2.96,14.098 -11.03,21.418 -24.18,21.969 h -30.29 v 33.531 h 30.29 c 25.32,0 43.7,-6.871 55.12,-20.652 8.06,-11.758 12.12,-24.071 12.12,-36.957 v -2.52 c 0,-14.723 -4.28,-27.664 -12.8,-38.8125 -1.58,-2.0898 -3.37,-4.0195 -5.4,-5.7812 z M 3825.72,0.378906 h -42.89 V 189.449 h 42.89 V 0.378906" /><path
         id="path44"
         style="fill:#231f20;fill-opacity:1;fill-rule:nonzero;stroke:none"
         d="m 4032.67,189.961 c 25.35,0 43.73,-7.152 55.12,-21.441 8.09,-12.27 12.12,-25.09 12.12,-38.418 v -2.61 c 0,-15.363 -4.27,-28.8318 -12.79,-40.41 -11.4,-15.4297 -34.02,-22.582 -67.86,-21.4531 h -16.85 V 101.16 h 34.35 c 13.42,4.899 20.12,14.121 20.12,27.641 v 3.398 c -2.99,14.742 -11.04,22.391 -24.21,22.891 h -30.26 v 34.871 z M 3995.58,0.378906 h -42.91 V 189.449 h 42.91 V 0.378906" /><path
         id="path46"
         style="fill:#231f20;fill-opacity:1;fill-rule:nonzero;stroke:none"
         d="m 4206.85,34.4609 c 12.19,0.6094 22.64,6.5196 31.3,17.7579 9.21,11.7617 13.85,25.9101 13.85,42.4921 0,16.6601 -4.64,30.8791 -13.85,42.6291 -8.66,11.14 -19.11,17.019 -31.3,17.629 v 34.633 c 23.59,-0.801 43.85,-10.02 60.81,-27.653 17.61,-18.519 26.43,-40.828 26.43,-66.9685 0,-26.1407 -8.82,-48.4102 -26.43,-66.8516 -16.96,-17.707 -37.22,-26.96874 -60.81,-27.749994 z m -6.83,120.2501 c -10.98,-1.313 -20.49,-7.121 -28.57,-17.371 -9.19,-11.75 -13.8,-25.969 -13.8,-42.6291 0,-16.582 4.61,-30.7304 13.8,-42.4921 8.08,-10.3672 17.59,-16.1875 28.57,-17.5079 V 0.5 c -23.25,0.87891 -43.21,10.0898 -59.87,27.6289 -17.63,18.4414 -26.46,40.7109 -26.46,66.8516 0,26.1405 8.83,48.4495 26.46,66.9685 16.66,17.449 36.62,26.633 59.87,27.5 v -34.738" /><path
         id="path48"
         style="fill:#231f20;fill-opacity:1;fill-rule:nonzero;stroke:none"
         d="m 4435.89,85.2383 c 3.35,-3.4297 6.55,-8.3867 9.59,-14.8594 1.35,-1.4101 2.47,-7.0078 3.47,-16.8398 l 1.29,-6.711 3.93,-20.8086 c 0.88,-2.1797 2.01,-6.3984 3.41,-12.6406 1.49,-2.2695 4.18,-6.42968 8.05,-12.488275 l -44.88,-0.25 c -1.48,0 -4.16,5.347655 -8.02,16.058575 -0.79,1.3008 -3.02,13.8125 -6.69,37.5 -1.62,5.6094 -5.21,10.0703 -10.82,13.4219 -5.25,1.8398 -18.15,2.7578 -38.67,2.7578 v 34.2031 h 34.36 c 13.4,4.727 20.12,13.59 20.12,26.59 v 3.289 c -2.99,14.098 -11.06,21.418 -24.21,21.969 h -30.27 v 33.531 h 30.27 c 25.33,0 43.72,-6.871 55.12,-20.652 8.08,-11.758 12.11,-24.071 12.11,-36.957 v -2.52 c 0,-14.723 -4.26,-27.664 -12.77,-38.8125 -1.58,-2.0898 -3.36,-4.0195 -5.39,-5.7812 z M 4349.71,0.378906 h -42.89 V 189.449 h 42.89 V 0.378906" /><path
         id="path50"
         style="fill:#231f20;fill-opacity:1;fill-rule:nonzero;stroke:none"
         d="m 4569.03,0.769531 h -42.9 V 146.941 h 42.9 z M 4616.78,188.66 v -34.75 h -140.49 v 34.75 h 140.49" /><path
         id="path52"
         style="fill:#231f20;fill-opacity:1;fill-rule:nonzero;stroke:none"
         d="M 4734.91,189.051 4801.62,0.378906 h -48.69 L 4740.31,40.5 h -52.24 l 10.12,34.8789 h 32.1 v 0.6328 l -19.47,69.4763 h -0.65 L 4669.4,0.378906 h -38.17 V 27.75 l 54.85,161.301 h 48.83" /><path
         id="path54"
         style="fill:#231f20;fill-opacity:1;fill-rule:nonzero;stroke:none"
         d="M 4951.05,35.2383 V 0.5 h -88.41 V 35.2383 Z M 4853.67,0.378906 h -42.86 V 189.449 h 42.86 V 0.378906" /><path
         id="path56"
         style="fill:#231f20;fill-opacity:1;fill-rule:nonzero;stroke:none"
         d="M 5008.25,35.1094 V 0.378906 h -42.87 V 35.1094 h 42.87" /><path
         id="path58"
         style="fill:#231f20;fill-opacity:1;fill-rule:nonzero;stroke:none"
         d="M 5175.5,28.1289 C 5158.55,10.4219 5138.31,1.16016 5114.73,0.378906 V 34.4609 c 12.18,0.6094 22.62,6.5196 31.3,17.7579 4.3,5.5195 7.59,11.5703 9.89,18.1601 l 36.26,-18.8281 c -4.2,-8.4219 -9.76,-16.211 -16.68,-23.4219 z M 5146.03,137.34 c -8.68,11.14 -19.12,17.019 -31.3,17.629 v 34.633 c 23.58,-0.801 43.82,-10.02 60.77,-27.653 8.6,-9.027 15.1,-19 19.47,-29.867 l -37.37,-18.434 c -2.2,8.774 -6.05,16.672 -11.57,23.692 z m -38.16,17.371 c -10.98,-1.313 -20.49,-7.121 -28.56,-17.371 -9.2,-11.75 -13.8,-25.969 -13.8,-42.6291 0,-16.582 4.6,-30.7304 13.8,-42.4921 8.07,-10.3672 17.58,-16.1875 28.56,-17.5079 V 0.5 c -23.25,0.87891 -43.21,10.0898 -59.86,27.6289 -17.64,18.4414 -26.46,40.7109 -26.46,66.8516 0,26.1405 8.82,48.4495 26.46,66.9685 16.65,17.449 36.61,26.633 59.86,27.5 v -34.738" /><path
         id="path60"
         style="fill:#231f20;fill-opacity:1;fill-rule:nonzero;stroke:none"
         d="m 5299.8,34.4609 c 12.19,0.6094 22.63,6.5196 31.32,17.7579 9.2,11.7617 13.83,25.9101 13.83,42.4921 0,16.6601 -4.63,30.8791 -13.83,42.6291 -8.69,11.14 -19.13,17.019 -31.32,17.629 v 34.633 c 23.59,-0.801 43.85,-10.02 60.8,-27.653 17.59,-18.519 26.43,-40.828 26.43,-66.9685 0,-26.1407 -8.84,-48.4102 -26.43,-66.8516 -16.95,-17.707 -37.21,-26.96874 -60.8,-27.749994 z m -6.83,120.2501 c -10.97,-1.313 -20.5,-7.121 -28.57,-17.371 -9.2,-11.75 -13.79,-25.969 -13.79,-42.6291 0,-16.582 4.59,-30.7304 13.79,-42.4921 8.07,-10.3672 17.6,-16.1875 28.57,-17.5079 V 0.5 c -23.25,0.87891 -43.21,10.0898 -59.89,27.6289 -17.62,18.4414 -26.42,40.7109 -26.42,66.8516 0,26.1405 8.8,48.4495 26.42,66.9685 16.68,17.449 36.64,26.633 59.89,27.5 v -34.738" /><path
         id="path62"
         style="fill:#231f20;fill-opacity:1;fill-rule:nonzero;stroke:none"
         d="m 5575.28,106.16 42.89,71.559 V 0.378906 h -42.89 z m -60.52,-24.078 63.68,106.969 h 40.79 L 5514.76,13.5313 Z m -9.99,-68.7031 -104.48,175.5431 h 40.79 L 5504.77,81.9492 Z M 5442.66,0.378906 h -42.88 V 177.719 l 42.88,-71.559 V 0.378906" /><path
         id="path64"
         style="fill:#211d1d;fill-opacity:1;fill-rule:nonzero;stroke:none"
         d="m 236.098,6823.91 c -25.961,-27.48 -57.039,-41.84 -93.223,-43.05 v 52.84 c 18.695,0.93 34.719,10.12 48.027,27.55 6.594,8.55 11.625,17.94 15.149,28.14 l 55.672,-29.18 c -6.43,-13.06 -14.993,-25.16 -25.625,-36.3 z m -45.196,169.32 c -13.308,17.3 -29.332,26.41 -48.027,27.35 v 53.69 c 36.184,-1.24 67.262,-15.53 93.223,-42.89 13.183,-14 23.136,-29.43 29.871,-46.29 l -57.317,-28.58 c -3.355,13.62 -9.261,25.86 -17.75,36.72 z m -58.531,26.94 c -16.805,-2.03 -31.402,-11.01 -43.7772,-26.94 -14.129,-18.2 -21.1954,-40.24 -21.1954,-66.08 0,-25.71 7.0664,-47.67 21.1954,-65.9 12.3752,-16.07 26.9722,-25.12 43.7772,-27.15 v -53.05 c -35.6444,1.36 -66.2499,15.65 -91.8358,42.86 C 13.5273,6852.47 0,6887.02 0,6927.54 c 0,40.54 13.5273,75.16 40.5352,103.84 25.5859,27.08 56.1914,41.31 91.8358,42.66 v -53.87" /><path
         id="path66"
         style="fill:#211d1d;fill-opacity:1;fill-rule:nonzero;stroke:none"
         d="m 481.859,6912.46 c 5.114,-5.32 10.032,-13 14.739,-23.07 2.011,-2.17 3.738,-10.87 5.254,-26.11 l 2.015,-10.39 6.035,-32.25 c 1.348,-3.4 3.106,-9.95 5.243,-19.61 2.304,-3.52 6.394,-9.98 12.312,-19.36 l -68.805,-0.41 c -2.289,0 -6.39,8.31 -12.3,24.9 -1.219,2.02 -4.657,21.41 -10.305,58.14 -2.43,8.7 -7.949,15.63 -16.551,20.82 -8.066,2.84 -27.848,4.27 -59.301,4.27 v 53.05 h 52.641 c 20.594,7.35 30.871,21.08 30.871,41.21 v 5.12 c -4.574,21.89 -16.949,33.24 -37.121,34.08 h -46.391 v 51.99 h 46.391 c 38.879,0 67.062,-10.66 84.562,-32.01 12.372,-18.24 18.563,-37.34 18.563,-57.33 v -3.91 c 0,-22.83 -6.531,-42.88 -19.574,-60.17 -2.422,-3.25 -5.192,-6.26 -8.278,-8.96 z m -132.171,-131.6 h -65.801 v 293.18 h 65.801 v -293.18" /><path
         id="path68"
         style="fill:#211d1d;fill-opacity:1;fill-rule:nonzero;stroke:none"
         d="m 757.68,6835.12 v -53.86 H 622.086 v 53.86 z m -11.289,127.52 v -53.86 H 621.879 v 53.86 z m 10.683,110.81 v -53.87 H 621.477 v 53.87 z M 610.168,6780.86 h -65.789 v 293.18 h 65.789 v -293.18" /><path
         id="path70"
         style="fill:#211d1d;fill-opacity:1;fill-rule:nonzero;stroke:none"
         d="m 936.852,7073.45 102.318,-292.59 h -74.678 l -19.375,62.23 h -80.113 l 15.562,54.05 h 49.219 v 1.02 l -29.867,107.73 h -1.008 l -62.558,-225.03 h -58.516 v 42.43 l 84.141,250.16 h 74.875" /><path
         id="path72"
         style="fill:#211d1d;fill-opacity:1;fill-rule:nonzero;stroke:none"
         d="m 1194.92,6781.47 h -65.8 v 226.66 h 65.8 z m 73.26,291.35 v -53.86 h -215.52 v 53.86 h 215.52" /><path
         id="path74"
         style="fill:#211d1d;fill-opacity:1;fill-rule:nonzero;stroke:none"
         d="m 1503.65,6835.12 v -53.86 h -135.62 v 53.86 z m -11.31,127.52 v -53.86 h -124.5 v 53.86 z m 10.7,110.81 v -53.87 h -135.62 v 53.87 z m -146.92,-292.59 h -65.77 l -0.01,293.18 h 65.78 v -293.18" /><path
         id="path76"
         style="fill:#211d1d;fill-opacity:1;fill-rule:nonzero;stroke:none"
         d="m 1683.63,6985.29 c -4.61,22.84 -16.99,34.48 -37.16,34.88 l -46.4,0.61 v 54.06 h 46.4 c 38.87,0 67.09,-11.08 84.56,-33.24 12.38,-19.03 18.56,-38.91 18.56,-59.57 V 6873.9 c 0,-20.72 -6.18,-40.55 -18.56,-59.57 -17.47,-22.19 -45.69,-33.28 -84.56,-33.28 h -46.4 v 54.07 l 46.4,0.63 c 20.17,0.38 32.55,12.02 37.16,34.89 z m -94.05,-204.43 h -65.8 v 293.18 h 65.8 v -293.18" /><path
         id="path78"
         style="fill:#211d1d;fill-opacity:1;fill-rule:nonzero;stroke:none"
         d="m 1952.36,7074.04 h 0.8 c 46.54,0 75.94,-16.74 88.19,-50.2 2.82,-6.64 4.23,-14.35 4.23,-23.04 v -5.1 c 0.12,-7.5 -1.61,-13.82 -5.25,-18.97 -4.3,-12.8 -11.42,-23.21 -21.37,-31.23 l -9.3,-5.3 -4.82,-1.64 c 5.23,-2.85 9.53,-5.09 12.89,-6.72 20.45,-12.39 32.1,-30.81 34.92,-55.3 0.66,-2.72 1.02,-5.9 1.02,-9.59 -1.08,-17.41 -2.76,-27.46 -5.05,-30.21 -1.35,-7.33 -6.12,-16.06 -14.33,-26.1 -9.69,-13.87 -27.17,-23.65 -52.49,-29.38 l -17.33,-1 h -1.01 c -1.34,0 -5.05,0.05 -11.1,0.18 l -60.53,-0.18 v 53.44 h 67.58 c 17.37,5.71 26.23,16.45 26.66,32.25 v 8.56 c 1.08,10.58 -3.73,19.31 -14.31,26.12 -2.17,3.39 -8.64,5.56 -19.4,6.51 l -60.33,0.41 0.16,54.89 h 60.17 c 2.41,0.54 5.79,0.82 10.08,0.82 12.25,5.31 18.34,15.02 18.34,29.18 l -0.99,7.34 -1.99,5.1 h -1.02 c -5.4,7.89 -13.53,12.38 -24.42,13.47 l -60.93,-0.4 0.4,56.32 60.53,-0.23" /><path
         id="path80"
         style="fill:#211d1d;fill-opacity:1;fill-rule:nonzero;stroke:none"
         d="m 2154.75,6922.85 87.15,150.8 h 72.46 l -93.62,-162.02 v -130.16 h -65.79 z m -81.93,150.8 h 72.44 l 42.76,-74.07 -36.51,-62.03 -78.69,136.1" /><path
         id="path82"
         style="fill:#211d1d;fill-opacity:1;fill-rule:nonzero;stroke:none"
         d="m 2595.22,6893.09 64.78,179.73 h 62.56 l -105.35,-292.19 h -21.99 z m -12.31,-112.23 h -21.19 l -105.55,292.59 h 62.56 l 64.18,-177.92 v -114.67" /><path
         id="path84"
         style="fill:#211d1d;fill-opacity:1;fill-rule:nonzero;stroke:none"
         d="m 2948.94,6835.12 v -53.86 h -135.61 v 53.86 z m -11.31,127.52 v -53.86 h -124.52 v 53.86 z m 10.69,110.81 v -53.87 h -135.61 v 53.87 z m -146.93,-292.59 h -65.76 v 293.18 h 65.76 v -293.18" /><path
         id="path86"
         style="fill:#211d1d;fill-opacity:1;fill-rule:nonzero;stroke:none"
         d="m 3205.22,6823.91 c -26,-27.48 -57.06,-41.84 -93.26,-43.05 v 52.84 c 18.71,0.93 34.71,10.12 48.02,27.55 6.58,8.55 11.64,17.94 15.16,28.14 l 55.66,-29.18 c -6.44,-13.06 -15,-25.16 -25.58,-36.3 z m -45.24,169.32 c -13.31,17.3 -29.31,26.41 -48.02,27.35 v 53.69 c 36.2,-1.24 67.26,-15.53 93.26,-42.89 13.16,-14 23.1,-29.43 29.86,-46.29 l -57.35,-28.58 c -3.34,13.62 -9.26,25.86 -17.75,36.72 z m -58.49,26.94 c -16.83,-2.03 -31.42,-11.01 -43.82,-26.94 -14.11,-18.2 -21.2,-40.24 -21.2,-66.08 0,-25.71 7.09,-47.67 21.2,-65.9 12.4,-16.07 26.99,-25.12 43.82,-27.15 v -53.05 c -35.66,1.36 -66.28,15.65 -91.84,42.86 -27.06,28.56 -40.57,63.11 -40.57,103.63 0,40.54 13.51,75.16 40.57,103.84 25.56,27.08 56.18,41.31 91.84,42.66 v -53.87" /><path
         id="path88"
         style="fill:#211d1d;fill-opacity:1;fill-rule:nonzero;stroke:none"
         d="m 3394.68,6781.47 h -65.82 v 226.66 h 65.82 z m 73.21,291.35 v -53.86 h -215.53 v 53.86 h 215.53" /><path
         id="path90"
         style="fill:#211d1d;fill-opacity:1;fill-rule:nonzero;stroke:none"
         d="m 3632.93,6833.7 c 18.71,0.93 34.73,10.12 48.05,27.55 14.13,18.23 21.19,40.19 21.19,65.9 0,25.84 -7.06,47.88 -21.19,66.08 -13.32,17.3 -29.34,26.41 -48.05,27.35 v 53.69 c 36.19,-1.24 67.27,-15.53 93.21,-42.89 27.05,-28.68 40.59,-63.3 40.59,-103.84 0,-40.52 -13.54,-75.07 -40.59,-103.63 -25.94,-27.48 -57.02,-41.84 -93.21,-43.05 z m -10.49,186.47 c -16.83,-2.03 -31.42,-11.01 -43.8,-26.94 -14.12,-18.2 -21.19,-40.24 -21.19,-66.08 0,-25.71 7.07,-47.67 21.19,-65.9 12.38,-16.07 26.97,-25.12 43.8,-27.15 v -53.05 c -35.63,1.36 -66.25,15.65 -91.84,42.86 -27.02,28.56 -40.54,63.11 -40.54,103.63 0,40.54 13.52,75.16 40.54,103.84 25.59,27.08 56.21,41.31 91.84,42.66 v -53.87" /><path
         id="path92"
         style="fill:#211d1d;fill-opacity:1;fill-rule:nonzero;stroke:none"
         d="m 3984.19,6912.46 c 5.17,-5.32 10.03,-13 14.77,-23.07 2,-2.17 3.75,-10.87 5.22,-26.11 l 2.05,-10.39 6.03,-32.25 c 1.32,-3.4 3.09,-9.95 5.24,-19.61 2.29,-3.52 6.4,-9.98 12.34,-19.36 l -68.8,-0.41 c -2.32,0 -6.42,8.31 -12.33,24.9 -1.22,2.02 -4.65,21.41 -10.31,58.14 -2.39,8.7 -7.91,15.63 -16.53,20.82 -8.05,2.84 -27.86,4.27 -59.35,4.27 v 53.05 h 52.68 c 20.56,7.35 30.87,21.08 30.87,41.21 v 5.12 c -4.56,21.89 -16.95,33.24 -37.1,34.08 h -46.45 v 51.99 h 46.45 c 38.85,0 67.03,-10.66 84.56,-32.01 12.33,-18.24 18.58,-37.34 18.58,-57.33 v -3.91 c 0,-22.83 -6.54,-42.88 -19.61,-60.17 -2.42,-3.25 -5.21,-6.26 -8.31,-8.96 z m -132.16,-131.6 h -65.78 v 293.18 h 65.78 v -293.18" /><path
         id="path94"
         style="fill:#211d1d;fill-opacity:1;fill-rule:nonzero;stroke:none"
         d="m 4169.4,7074.84 c 38.92,0 67.1,-11.08 84.58,-33.24 12.42,-19.03 18.59,-38.91 18.59,-59.57 v -4.07 c 0,-23.82 -6.55,-44.7 -19.59,-62.65 -17.5,-23.93 -52.21,-35.05 -104.09,-33.26 h -25.86 v 55.09 h 52.69 c 20.57,7.6 30.86,21.89 30.86,42.84 v 5.31 c -4.61,22.84 -16.95,34.69 -37.18,35.49 h -46.37 v 54.06 z m -56.85,-293.98 h -65.83 v 293.18 h 65.83 v -293.18" /><path
         id="path96"
         style="fill:#211d1d;fill-opacity:1;fill-rule:nonzero;stroke:none"
         d="m 4436.58,6833.7 c 18.71,0.93 34.73,10.12 48.02,27.55 14.13,18.23 21.24,40.19 21.24,65.9 0,25.84 -7.11,47.88 -21.24,66.08 -13.29,17.3 -29.31,26.41 -48.02,27.35 v 53.69 c 36.19,-1.24 67.26,-15.53 93.25,-42.89 27.03,-28.68 40.56,-63.3 40.56,-103.84 0,-40.52 -13.53,-75.07 -40.56,-103.63 -25.99,-27.48 -57.06,-41.84 -93.25,-43.05 z m -10.47,186.47 c -16.83,-2.03 -31.4,-11.01 -43.82,-26.94 -14.11,-18.2 -21.19,-40.24 -21.19,-66.08 0,-25.71 7.08,-47.67 21.19,-65.9 12.42,-16.07 26.99,-25.12 43.82,-27.15 v -53.05 c -35.65,1.36 -66.27,15.65 -91.83,42.86 -27.04,28.56 -40.57,63.11 -40.57,103.63 0,40.54 13.53,75.16 40.57,103.84 25.56,27.08 56.18,41.31 91.83,42.66 v -53.87" /><path
         id="path98"
         style="fill:#211d1d;fill-opacity:1;fill-rule:nonzero;stroke:none"
         d="m 4787.87,6912.46 c 5.15,-5.32 10.05,-13 14.71,-23.07 2.08,-2.17 3.8,-10.87 5.32,-26.11 l 1.99,-10.39 6.01,-32.25 c 1.38,-3.4 3.09,-9.95 5.25,-19.61 2.28,-3.52 6.42,-9.98 12.35,-19.36 l -68.84,-0.41 c -2.28,0 -6.38,8.31 -12.31,24.9 -1.23,2.02 -4.64,21.41 -10.25,58.14 -2.49,8.7 -7.98,15.63 -16.57,20.82 -8.08,2.84 -27.85,4.27 -59.34,4.27 v 53.05 h 52.7 c 20.54,7.35 30.86,21.08 30.86,41.21 v 5.12 c -4.58,21.89 -16.94,33.24 -37.16,34.08 h -46.4 v 51.99 h 46.4 c 38.87,0 67.11,-10.66 84.59,-32.01 12.38,-18.24 18.56,-37.34 18.56,-57.33 v -3.91 c 0,-22.83 -6.56,-42.88 -19.59,-60.17 -2.44,-3.25 -5.18,-6.26 -8.28,-8.96 z m -132.17,-131.6 h -65.79 v 293.18 h 65.79 v -293.18" /><path
         id="path100"
         style="fill:#211d1d;fill-opacity:1;fill-rule:nonzero;stroke:none"
         d="m 4992.09,6781.47 h -65.79 v 226.66 h 65.79 z m 73.24,291.35 v -53.86 h -215.5 v 53.86 h 215.5" /><path
         id="path102"
         style="fill:#211d1d;fill-opacity:1;fill-rule:nonzero;stroke:none"
         d="m 5246.51,7073.45 102.32,-292.59 h -74.67 l -19.36,62.23 h -80.13 l 15.53,54.05 h 49.23 v 1.02 l -29.86,107.73 h -1.03 l -62.49,-225.03 h -58.57 v 42.43 l 84.13,250.16 h 74.9" /><path
         id="path104"
         style="fill:#211d1d;fill-opacity:1;fill-rule:nonzero;stroke:none"
         d="m 5578.03,6834.92 v -53.87 h -135.64 v 53.87 z m -149.36,-54.06 h -65.74 v 293.18 h 65.74 v -293.18" /><path
         id="path106"
         style="fill:#211d1d;fill-opacity:1;fill-rule:nonzero;stroke:none"
         d="m 5665.74,6834.71 v -53.85 h -65.73 v 53.85 h 65.73" /><path
         id="path108"
         style="fill:#211d1d;fill-opacity:1;fill-rule:nonzero;stroke:none"
         d="m 5922.28,6823.91 c -25.98,-27.48 -57.07,-41.84 -93.24,-43.05 v 52.84 c 18.68,0.93 34.73,10.12 48.02,27.55 6.6,8.55 11.65,17.94 15.16,28.14 l 55.62,-29.18 c -6.44,-13.06 -14.96,-25.16 -25.56,-36.3 z m -45.22,169.32 c -13.29,17.3 -29.34,26.41 -48.02,27.35 v 53.69 c 36.17,-1.24 67.26,-15.53 93.24,-42.89 13.17,-14 23.15,-29.43 29.84,-46.29 l -57.3,-28.58 c -3.36,13.62 -9.28,25.86 -17.76,36.72 z m -58.52,26.94 c -16.84,-2.03 -31.41,-11.01 -43.79,-26.94 -14.13,-18.2 -21.21,-40.24 -21.21,-66.08 0,-25.71 7.08,-47.67 21.21,-65.9 12.38,-16.07 26.95,-25.12 43.79,-27.15 v -53.05 c -35.66,1.36 -66.25,15.65 -91.81,42.86 -27.05,28.56 -40.58,63.11 -40.58,103.63 0,40.54 13.53,75.16 40.58,103.84 25.56,27.08 56.15,41.31 91.81,42.66 v -53.87" /><path
         id="path110"
         style="fill:#211d1d;fill-opacity:1;fill-rule:nonzero;stroke:none"
         d="m 6112.92,6833.7 c 18.68,0.93 34.7,10.12 48.04,27.55 14.1,18.23 21.19,40.19 21.19,65.9 0,25.84 -7.09,47.88 -21.19,66.08 -13.34,17.3 -29.36,26.41 -48.04,27.35 v 53.69 c 36.16,-1.24 67.26,-15.53 93.23,-42.89 26.99,-28.68 40.55,-63.3 40.55,-103.84 0,-40.52 -13.56,-75.07 -40.55,-103.63 -25.97,-27.48 -57.07,-41.84 -93.23,-43.05 z m -10.48,186.47 c -16.82,-2.03 -31.46,-11.01 -43.83,-26.94 -14.12,-18.2 -21.15,-40.24 -21.15,-66.08 0,-25.71 7.03,-47.67 21.15,-65.9 12.37,-16.07 27.01,-25.12 43.83,-27.15 v -53.05 c -35.67,1.36 -66.27,15.65 -91.86,42.86 -27.02,28.56 -40.52,63.11 -40.52,103.63 0,40.54 13.5,75.16 40.52,103.84 25.59,27.08 56.19,41.31 91.86,42.66 v -53.87" /><path
         id="path112"
         style="fill:#211d1d;fill-opacity:1;fill-rule:nonzero;stroke:none"
         d="m 6535.44,6944.88 65.78,110.98 v -275 h -65.78 z m -92.83,-37.33 97.68,165.9 h 62.55 l -160.23,-272.2 z m -15.33,-106.52 -160.26,272.2 h 62.6 l 97.66,-165.89 z m -95.27,-20.17 h -65.76 v 275 l 65.76,-110.98 v -164.02" /><path
         id="path114"
         style="fill:#211d1d;fill-opacity:1;fill-rule:nonzero;stroke:none"
         d="m 106.711,6570.33 c 11.496,0.6 21.332,6.22 29.527,16.94 8.68,11.18 13.02,24.69 13.02,40.49 0,15.9 -4.34,29.44 -13.02,40.6 -8.195,10.63 -18.031,16.25 -29.527,16.84 v 32.98 c 22.23,-0.75 41.355,-9.54 57.316,-26.34 16.614,-17.66 24.942,-38.9 24.942,-63.85 0,-24.92 -8.328,-46.14 -24.942,-63.7 -15.961,-16.89 -35.086,-25.72 -57.316,-26.47 z m -6.441,114.62 c -10.3325,-1.27 -19.3169,-6.78 -26.9145,-16.59 -8.6875,-11.16 -13.0391,-24.7 -13.0391,-40.6 0,-15.8 4.3516,-29.31 13.0391,-40.49 7.5976,-9.9 16.582,-15.47 26.9145,-16.7 v -32.62 c -21.9145,0.85 -40.7387,9.66 -56.4458,26.34 -16.6328,17.56 -24.9336,38.78 -24.9336,63.7 0,24.95 8.3008,46.19 24.9336,63.85 15.7071,16.65 34.5313,25.39 56.4458,26.21 v -33.1" /><path
         id="path116"
         style="fill:#211d1d;fill-opacity:1;fill-rule:nonzero;stroke:none"
         d="m 397.047,6618.72 c 3.129,-3.26 6.144,-7.99 9.058,-14.16 1.223,-1.34 2.301,-6.66 3.215,-16.06 l 1.239,-6.39 3.734,-19.82 c 0.82,-2.09 1.879,-6.11 3.219,-12.03 1.398,-2.2 3.926,-6.17 7.554,-11.91 l -42.293,-0.26 c -1.394,0 -3.941,5.08 -7.57,15.3 -0.738,1.26 -2.84,13.18 -6.32,35.76 -1.485,5.35 -4.891,9.58 -10.168,12.75 -4.953,1.76 -17.106,2.66 -36.465,2.66 v 32.62 h 32.375 c 12.645,4.51 18.965,12.95 18.965,25.33 v 3.14 c -2.805,13.44 -10.426,20.41 -22.832,20.94 H 322.25 v 31.97 h 28.508 c 23.914,0 41.25,-6.56 51.972,-19.67 7.622,-11.23 11.43,-22.99 11.43,-35.28 v -2.38 c 0,-14.03 -4.004,-26.36 -12.035,-36.96 -1.484,-2.04 -3.195,-3.87 -5.078,-5.55 z m -81.246,-80.9 h -40.446 v 180.23 h 40.446 v -180.23" /><path
         id="path118"
         style="fill:#211d1d;fill-opacity:1;fill-rule:nonzero;stroke:none"
         d="m 550.297,6537.82 h -40.438 v 180.23 h 40.438 v -180.23" /><path
         id="path120"
         style="fill:#211d1d;fill-opacity:1;fill-rule:nonzero;stroke:none"
         d="m 754.121,6668.36 c -8.183,10.63 -18.008,16.25 -29.516,16.84 v 32.98 c 22.25,-0.75 41.333,-9.54 57.313,-26.34 8.109,-8.61 14.211,-18.09 18.355,-28.46 l -35.218,-17.56 c -2.067,8.37 -5.7,15.89 -10.934,22.54 z m 52.719,-42.46 c -0.485,-24.03 -8.793,-44.54 -24.922,-61.61 -15.98,-16.89 -35.063,-25.72 -57.313,-26.47 v 32.51 c 11.508,0.6 21.333,6.22 29.516,16.94 1.41,1.75 2.703,3.58 3.859,5.49 h -33.609 v 33.14 z m -88.676,59.05 c -10.344,-1.27 -19.309,-6.78 -26.914,-16.59 -8.699,-11.16 -13.031,-24.7 -13.031,-40.6 0,-15.8 4.332,-29.31 13.031,-40.49 7.605,-9.9 16.57,-15.47 26.914,-16.7 v -32.62 c -21.918,0.85 -40.723,9.66 -56.449,26.34 -16.613,17.56 -24.918,38.78 -24.918,63.7 0,24.95 8.305,46.19 24.918,63.85 15.726,16.65 34.531,25.39 56.449,26.21 v -33.1" /><path
         id="path122"
         style="fill:#211d1d;fill-opacity:1;fill-rule:nonzero;stroke:none"
         d="m 934.066,6537.82 h -40.445 v 180.23 h 40.445 v -180.23" /><path
         id="path124"
         style="fill:#211d1d;fill-opacity:1;fill-rule:nonzero;stroke:none"
         d="m 1125.13,6717.65 h 40.42 v -169.01 l -40.42,68.22 z m 1.61,-179.7 -105.71,179.62 h 38.46 l 105.8,-179.75 z m -65.75,-0.13 h -40.44 v 169.08 l 40.44,-68.22 v -100.86" /><path
         id="path126"
         style="fill:#211d1d;fill-opacity:1;fill-rule:nonzero;stroke:none"
         d="m 1350.93,6717.65 62.9,-179.83 h -45.91 l -11.89,38.26 h -49.24 l 9.55,33.24 h 30.25 v 0.65 l -18.35,66.21 h -0.61 l -38.46,-138.36 h -36 v 26.09 l 51.74,153.74 h 46.02" /><path
         id="path128"
         style="fill:#211d1d;fill-opacity:1;fill-rule:nonzero;stroke:none"
         d="m 1629.11,6571.07 v -33.12 h -83.34 v 33.12 z m -91.81,-33.25 h -40.42 v 180.23 h 40.42 v -180.23" /><path
         id="path130"
         style="fill:#211d1d;fill-opacity:1;fill-rule:nonzero;stroke:none"
         d="m 1989.79,6649.57 v -33.08 h -76.53 v 33.08 z m 6.58,68.08 v -33.09 h -83.36 v 33.09 z m -90.32,-179.83 h -40.42 v 180.23 h 40.42 v -180.23" /><path
         id="path132"
         style="fill:#211d1d;fill-opacity:1;fill-rule:nonzero;stroke:none"
         d="m 2204.43,6618.72 c 3.16,-3.26 6.17,-7.99 9.07,-14.16 1.25,-1.34 2.31,-6.66 3.21,-16.06 l 1.26,-6.39 3.73,-19.82 c 0.81,-2.09 1.89,-6.11 3.21,-12.03 1.4,-2.2 3.93,-6.17 7.56,-11.91 l -42.28,-0.26 c -1.42,0 -3.95,5.08 -7.59,15.3 -0.74,1.26 -2.84,13.18 -6.31,35.76 -1.5,5.35 -4.89,9.58 -10.16,12.75 -5,1.76 -17.12,2.66 -36.49,2.66 v 32.62 h 32.38 c 12.65,4.51 18.98,12.95 18.98,25.33 v 3.14 c -2.82,13.44 -10.41,20.41 -22.84,20.94 h -28.52 v 31.97 h 28.52 c 23.92,0 41.25,-6.56 51.99,-19.67 7.6,-11.23 11.42,-22.99 11.42,-35.28 v -2.38 c 0,-14.03 -4,-26.36 -12.04,-36.96 -1.5,-2.04 -3.19,-3.87 -5.1,-5.55 z m -81.24,-80.9 h -40.43 v 180.23 h 40.43 v -180.23" /><path
         id="path134"
         style="fill:#211d1d;fill-opacity:1;fill-rule:nonzero;stroke:none"
         d="m 2448.36,6571.19 v -33.1 h -83.32 v 33.1 z m -6.95,78.38 v -33.08 h -76.52 v 33.08 z m 6.6,68.08 v -33.09 h -83.37 v 33.09 z m -90.32,-179.83 h -40.44 v 180.23 h 40.44 v -180.23" /><path
         id="path136"
         style="fill:#211d1d;fill-opacity:1;fill-rule:nonzero;stroke:none"
         d="m 2666.24,6571.19 v -33.1 h -83.33 v 33.1 z m -6.95,78.38 v -33.08 h -76.52 v 33.08 z m 6.58,68.08 v -33.09 h -83.35 v 33.09 z m -90.29,-179.83 h -40.45 v 180.23 h 40.45 v -180.23" /><path
         id="path138"
         style="fill:#211d1d;fill-opacity:1;fill-rule:nonzero;stroke:none"
         d="m 2987.62,6606.8 39.82,110.51 h 38.44 l -64.77,-179.59 h -13.49 z m -7.55,-68.98 h -13.04 l -64.86,179.83 h 38.45 l 39.45,-109.33 v -70.5" /><path
         id="path140"
         style="fill:#211d1d;fill-opacity:1;fill-rule:nonzero;stroke:none"
         d="m 3279.41,6571.19 v -33.1 h -83.32 v 33.1 z m -6.91,78.38 v -33.08 h -76.59 v 33.08 z m 6.55,68.08 v -33.09 h -83.39 v 33.09 z m -90.29,-179.83 h -40.43 v 180.23 h 40.43 v -180.23" /><path
         id="path142"
         style="fill:#211d1d;fill-opacity:1;fill-rule:nonzero;stroke:none"
         d="m 3511.32,6564.29 c -15.94,-16.89 -35.08,-25.72 -57.31,-26.47 v 32.51 c 11.51,0.6 21.36,6.22 29.57,16.94 4.02,5.26 7.11,11.01 9.25,17.29 l 34.25,-17.93 c -3.97,-8.04 -9.21,-15.46 -15.76,-22.34 z m -27.74,104.07 c -8.21,10.63 -18.06,16.25 -29.57,16.84 v 32.98 c 22.23,-0.75 41.37,-9.54 57.31,-26.34 8.09,-8.61 14.2,-18.09 18.35,-28.46 l -35.22,-17.56 c -2.08,8.37 -5.7,15.89 -10.87,22.54 z m -36.01,16.59 c -10.31,-1.27 -19.33,-6.78 -26.94,-16.59 -8.67,-11.16 -13,-24.7 -13,-40.6 0,-15.8 4.33,-29.31 13,-40.49 7.61,-9.9 16.63,-15.47 26.94,-16.7 v -32.62 c -21.91,0.85 -40.72,9.66 -56.44,26.34 -16.64,17.56 -24.92,38.78 -24.92,63.7 0,24.95 8.28,46.19 24.92,63.85 15.72,16.65 34.53,25.39 56.44,26.21 v -33.1" /><path
         id="path144"
         style="fill:#211d1d;fill-opacity:1;fill-rule:nonzero;stroke:none"
         d="m 3702.18,6538.21 h -40.43 v 139.33 h 40.43 z m 45.02,179.1 v -33.1 h -132.49 v 33.1 h 132.49" /><path
         id="path146"
         style="fill:#211d1d;fill-opacity:1;fill-rule:nonzero;stroke:none"
         d="m 3923.01,6570.33 c 11.49,0.6 21.35,6.22 29.55,16.94 8.65,11.18 13.01,24.69 13.01,40.49 0,15.9 -4.36,29.44 -13.01,40.6 -8.2,10.63 -18.06,16.25 -29.55,16.84 v 32.98 c 22.25,-0.75 41.34,-9.54 57.28,-26.34 16.66,-17.66 24.96,-38.9 24.96,-63.85 0,-24.92 -8.3,-46.14 -24.96,-63.7 -15.94,-16.89 -35.03,-25.72 -57.28,-26.47 z m -6.45,114.62 c -10.34,-1.27 -19.29,-6.78 -26.92,-16.59 -8.69,-11.16 -13.01,-24.7 -13.01,-40.6 0,-15.8 4.32,-29.31 13.01,-40.49 7.63,-9.9 16.58,-15.47 26.92,-16.7 v -32.62 c -21.91,0.85 -40.72,9.66 -56.42,26.34 -16.65,17.56 -24.95,38.78 -24.95,63.7 0,24.95 8.3,46.19 24.95,63.85 15.7,16.65 34.51,25.39 56.42,26.21 v -33.1" /><path
         id="path148"
         style="fill:#211d1d;fill-opacity:1;fill-rule:nonzero;stroke:none"
         d="m 4213.36,6618.72 c 3.13,-3.26 6.16,-7.99 9.04,-14.16 1.22,-1.34 2.29,-6.66 3.24,-16.06 l 1.23,-6.39 3.74,-19.82 c 0.78,-2.09 1.85,-6.11 3.21,-12.03 1.39,-2.2 3.93,-6.17 7.56,-11.91 l -42.33,-0.26 c -1.35,0 -3.93,5.08 -7.55,15.3 -0.72,1.26 -2.84,13.18 -6.31,35.76 -1.5,5.35 -4.88,9.58 -10.2,12.75 -4.91,1.76 -17.1,2.66 -36.44,2.66 v 32.62 h 32.37 c 12.64,4.51 18.96,12.95 18.96,25.33 v 3.14 c -2.81,13.44 -10.36,20.41 -22.81,20.94 h -28.52 v 31.97 h 28.52 c 23.91,0 41.21,-6.56 51.97,-19.67 7.65,-11.23 11.4,-22.99 11.4,-35.28 v -2.38 c 0,-14.03 -3.99,-26.36 -11.97,-36.96 -1.54,-2.04 -3.24,-3.87 -5.11,-5.55 z m -81.25,-80.9 h -40.46 v 180.23 h 40.46 v -180.23" /><path
         id="path150"
         style="fill:#211d1d;fill-opacity:1;fill-rule:nonzero;stroke:none"
         d="m 4402.94,6717.65 c 17.8,0 33.47,-5.02 46.99,-15.12 7.98,-6.71 13.8,-19.08 17.38,-37.16 v -1.76 l -20.32,-2.49 -16.9,-1.11 c -1.56,9.83 -4.36,16.33 -8.4,19.43 -3.3,2.81 -9.54,5.49 -18.58,7.89 z m -17.73,-103.08 c -35.74,6.55 -53.59,23.29 -53.59,50.32 v 2.38 c 0,28.19 18.03,44.78 54.1,49.77 l 11.17,0.27 0.23,-29.98 c -8.12,-0.66 -13.73,-1.66 -16.88,-3 -6.56,-2.53 -9.71,-8.21 -9.55,-17.06 0,-8.28 10.38,-14.33 31.13,-18.2 5.21,-0.92 9.48,-1.8 12.78,-2.62 36.82,-6.19 55.2,-23.91 55.2,-53.18 v -2.51 c 0,-30.01 -18.02,-47.71 -54.1,-53.04 l -12.16,-0.37 v 31.72 c 8.61,0.91 14.51,2.1 17.64,3.5 6.53,2.67 9.74,8.75 9.54,18.19 0,8.85 -10.23,15.71 -30.76,20.56 -4.63,1.45 -9.74,2.63 -15.26,3.64 z m -13.43,-35.98 c 7.63,-4.42 14.87,-7.05 21.76,-7.88 l 3.58,-0.62 -0.23,-32.27 c -21.63,-0.59 -38.15,3.88 -49.64,13.43 -12.84,8.36 -19.69,22.92 -20.62,43.65 l 37.34,3.64 c 0.67,-8.79 3.29,-15.25 7.81,-19.45 v -0.5" /><path
         id="path152"
         style="fill:#211d1d;fill-opacity:1;fill-rule:nonzero;stroke:none"
         d="m 4707.68,6717.65 c 17.79,0 33.45,-5.02 46.99,-15.12 7.95,-6.71 13.74,-19.08 17.39,-37.16 v -1.76 l -20.36,-2.49 -16.87,-1.11 c -1.56,9.83 -4.36,16.33 -8.45,19.43 -3.3,2.81 -9.5,5.49 -18.57,7.89 z m -17.77,-103.08 c -35.69,6.55 -53.54,23.29 -53.54,50.32 v 2.38 c 0,28.19 17.99,44.78 54.06,49.77 l 11.16,0.27 0.24,-29.98 c -8.11,-0.66 -13.73,-1.66 -16.83,-3 -6.58,-2.53 -9.75,-8.21 -9.59,-17.06 0,-8.28 10.39,-14.33 31.15,-18.2 5.23,-0.92 9.48,-1.8 12.79,-2.62 36.77,-6.19 55.18,-23.91 55.18,-53.18 v -2.51 c 0,-30.01 -18.05,-47.71 -54.1,-53.04 l -12.15,-0.37 v 31.72 c 8.6,0.91 14.46,2.1 17.65,3.5 6.49,2.67 9.7,8.75 9.51,18.19 0,8.85 -10.23,15.71 -30.73,20.56 -4.67,1.45 -9.72,2.63 -15.26,3.64 z m -13.38,-35.98 c 7.62,-4.42 14.84,-7.05 21.72,-7.88 l 3.58,-0.62 -0.24,-32.27 c -21.55,-0.59 -38.1,3.88 -49.64,13.43 -12.78,8.36 -19.66,22.92 -20.56,43.65 l 37.3,3.64 c 0.69,-8.79 3.28,-15.25 7.84,-19.45 v -0.5" /><path
         id="path154"
         style="fill:#211d1d;fill-opacity:1;fill-rule:nonzero;stroke:none"
         d="m 4901.75,6537.82 h -40.48 v 180.23 h 40.48 v -180.23" /><path
         id="path156"
         style="fill:#211d1d;fill-opacity:1;fill-rule:nonzero;stroke:none"
         d="m 5092.81,6717.65 h 40.4 v -169.01 l -40.4,68.22 z m 1.6,-179.7 -105.69,179.62 h 38.45 l 105.81,-179.75 z m -65.76,-0.13 h -40.43 v 169.08 l 40.43,-68.22 v -100.86" /><path
         id="path158"
         style="fill:#211d1d;fill-opacity:1;fill-rule:nonzero;stroke:none"
         d="m 5365.98,6564.29 c -15.96,-16.89 -35.04,-25.72 -57.31,-26.47 v 32.51 c 11.52,0.6 21.38,6.22 29.55,16.94 4.04,5.26 7.13,11.01 9.28,17.29 l 34.26,-17.93 c -4.01,-8.04 -9.23,-15.46 -15.78,-22.34 z m -27.76,104.07 c -8.17,10.63 -18.03,16.25 -29.55,16.84 v 32.98 c 22.27,-0.75 41.35,-9.54 57.31,-26.34 8.11,-8.61 14.23,-18.09 18.35,-28.46 l -35.21,-17.56 c -2.05,8.37 -5.72,15.89 -10.9,22.54 z m -36.01,16.59 c -10.31,-1.27 -19.28,-6.78 -26.89,-16.59 -8.71,-11.16 -13.01,-24.7 -13.01,-40.6 0,-15.8 4.3,-29.31 13.01,-40.49 7.61,-9.9 16.58,-15.47 26.89,-16.7 v -32.62 c -21.86,0.85 -40.73,9.66 -56.41,26.34 -16.63,17.56 -24.92,38.78 -24.92,63.7 0,24.95 8.29,46.19 24.92,63.85 15.68,16.65 34.55,25.39 56.41,26.21 v -33.1" /><path
         id="path160"
         style="fill:#211d1d;fill-opacity:1;fill-rule:nonzero;stroke:none"
         d="m 5600.88,6571.19 v -33.1 h -83.38 v 33.1 z m -6.93,78.38 v -33.08 h -76.55 v 33.08 z m 6.56,68.08 v -33.09 h -83.34 v 33.09 z m -90.31,-179.83 h -40.42 v 180.23 h 40.42 v -180.23" /><path
         id="path162"
         style="fill:#211d1d;fill-opacity:1;fill-rule:nonzero;stroke:none"
         d="m 5974.59,6571.07 v -33.12 h -93.63 v 33.12 z m -95.49,108.88 c -4.33,-3.93 -6.8,-9.98 -7.49,-18.1 l -35.35,3.42 c 0.86,19.2 7.36,32.72 19.51,40.48 10.92,8.86 26.57,13.05 46.97,12.56 l 0.3,-29.96 -3.38,-0.64 c -6.52,-0.75 -13.4,-3.24 -20.56,-7.41 z m -42.93,-107.6 v 5.26 c 0,29.25 18.91,48.98 56.67,59.17 3.32,0.86 7.59,1.74 12.79,2.62 20.25,5.96 30.12,15.51 29.64,28.62 0.16,8.86 -3.03,14.55 -9.56,17.07 -3.13,1.34 -8.73,2.32 -16.88,3.01 l 0.27,29.95 11.14,-0.25 c 36.05,-5 54.13,-21.62 54.13,-49.78 v -2.37 c 0,-27.01 -17.41,-47.22 -52.13,-60.72 -5.22,-0.72 -10.16,-1.82 -14.78,-3.26 -22.2,-6.53 -32.95,-15.39 -32.24,-26.56 l 0.14,-37.66 h -39.19 v 34.9" /><path
         id="path164"
         style="fill:#211d1d;fill-opacity:1;fill-rule:nonzero;stroke:none"
         d="m 6125.73,6717.8 c 21.59,-0.76 37.43,-7.32 47.51,-19.71 l 0.59,0.64 v -0.64 l -0.59,-0.61 c 7.56,-11.69 11.37,-23.87 11.37,-36.63 v -64.81 c 0,-14.66 -5.44,-28.71 -16.46,-42.26 -8.18,-9.22 -22.33,-14.57 -42.42,-16.06 v 34.26 c 12.25,4.24 18.37,12.67 18.37,25.3 v 65.61 c -2.47,12.25 -8.61,19.17 -18.37,20.67 z m -8.92,-33.85 c -9.75,-1.5 -15.9,-8.41 -18.38,-20.72 v -65.57 c 0,-12.61 6.12,-21.06 18.38,-25.31 v -34.26 c -20.09,1.48 -34.28,6.82 -42.45,16.04 -10.97,13.55 -16.48,27.64 -16.48,42.26 v 64.84 c 0,12.71 3.79,24.94 11.42,36.63 l -0.64,0.62 v 0.63 l 0.64,-0.63 c 10.08,12.38 25.91,18.95 47.51,19.7 v -34.23" /><path
         id="path166"
         style="fill:#211d1d;fill-opacity:1;fill-rule:nonzero;stroke:none"
         d="m 6339.87,6717.8 c 21.59,-0.76 37.45,-7.32 47.55,-19.71 l 0.58,0.64 v -0.64 l -0.58,-0.61 c 7.59,-11.69 11.38,-23.87 11.38,-36.63 v -64.81 c 0,-14.66 -5.47,-28.71 -16.5,-42.26 -8.18,-9.22 -22.32,-14.57 -42.43,-16.06 v 34.26 c 12.25,4.24 18.35,12.67 18.35,25.3 v 65.61 c -2.47,12.25 -8.59,19.17 -18.35,20.67 z m -8.92,-33.85 c -9.78,-1.5 -15.86,-8.41 -18.35,-20.72 v -65.57 c 0,-12.61 6.14,-21.06 18.35,-25.31 v -34.26 c -20.09,1.48 -34.21,6.82 -42.43,16.04 -11.01,13.55 -16.48,27.64 -16.48,42.26 v 64.84 c 0,12.71 3.78,24.94 11.43,36.63 l -0.64,0.62 v 0.63 l 0.64,-0.63 c 10.07,12.38 25.91,18.95 47.48,19.7 v -34.23" /><path
         id="path168"
         style="fill:#211d1d;fill-opacity:1;fill-rule:nonzero;stroke:none"
         d="m 6525.77,6679.18 c -1.82,-18.06 7.57,-27.6 28.24,-28.62 6.95,0.09 14.19,-1.12 21.75,-3.62 32.39,-10.86 48.62,-29.8 48.62,-56.8 v -2.38 c 0,-28.19 -18.02,-44.78 -54.11,-49.81 l -11.14,-0.23 -0.23,29.96 c 8.07,0.71 13.68,1.68 16.86,3.03 6.53,2.47 9.73,8.18 9.54,17.05 0.5,13.12 -8.42,22.68 -26.69,28.58 -7.18,0.95 -13.7,1.81 -19.61,2.62 -36.21,2.62 -53.65,22.64 -52.34,60.1 z m 3.34,-103.72 c 7.21,-4.19 14.02,-6.66 20.46,-7.41 l 3.48,-0.64 -0.26,-29.96 c -20.43,-0.51 -36.09,3.69 -46.99,12.56 -12.18,7.79 -18.63,21.26 -19.47,40.49 l 35.33,3.39 c 0.66,-8.12 3.15,-14.13 7.45,-18.04 z m -42.78,109.24 v 33.1 h 138.3 v -33.1 h -138.3" /><path
         id="path170"
         style="fill:#bc4c1f;fill-opacity:1;fill-rule:evenodd;stroke:none"
         d="m 3346.16,544.82 c 1611.02,0 2924.95,24.75 2924.95,55.09 0,30.328 -1313.93,55.082 -2924.95,55.082 -1611.03,0 -2924.984,-24.754 -2924.984,-55.082 0,-30.34 1313.954,-55.09 2924.984,-55.09" /><path
         id="path172"
         style="fill:#892f1b;fill-opacity:1;fill-rule:evenodd;stroke:none"
         d="m 2024.12,5865.96 h 358.05 v -440.68 h 86.28 c 170.89,308.73 499.85,517.8 877.71,517.8 377.84,0 706.81,-209.07 877.67,-517.8 h 86.29 v 440.68 h 358.04 V 1459.22 H 2024.12 v 4406.74" /><path
         id="path174"
         style="fill:#a93d1f;fill-opacity:1;fill-rule:evenodd;stroke:none"
         d="M 4668.16,2491.44 2024.12,4286.43 V 3691.51 L 4668.16,1896.53 Z M 2024.12,5865.96 h 139.99 l 218.06,-148.03 v -292.65 h 86.28 c 31.44,56.8 68.25,110.2 109.72,159.58 L 4668.16,4166 V 2910.09 L 2024.12,4705.06 v 1160.9 0" /><path
         id="path176"
         style="fill:#2a1813;fill-opacity:1;fill-rule:evenodd;stroke:none"
         d="M 2398.68,3960.03 V 1833.79 H 4293.6 V 3960.03 H 2398.68" /><path
         id="path178"
         style="fill:#451c14;fill-opacity:1;fill-rule:evenodd;stroke:none"
         d="M 2398.68,3175.97 4293.6,1889.57 v -55.78 h -565.72 l -1329.2,902.34 z m 0,784.06 V 3485.5 L 4293.6,2199.1 v 928.53 l -1226.14,832.4 h -668.78 v 0" /><path
         id="path180"
         style="fill:#451c14;fill-opacity:1;fill-rule:evenodd;stroke:none"
         d="M 2712.68,1833.79 H 4293.6 V 3629.52 H 2712.68 V 1833.79" /><path
         id="path182"
         style="fill:#652815;fill-opacity:1;fill-rule:evenodd;stroke:none"
         d="M 4293.6,2199.1 2712.68,3272.34 v 357.18 h 841.63 l 739.29,-501.89 z m -565.72,-365.31 h 565.72 v 55.78 L 2712.68,2962.81 v -439.83 l 1015.2,-689.19 v 0" /><path
         id="path184"
         style="fill:#7e2b1a;fill-opacity:1;fill-rule:evenodd;stroke:none"
         d="m 3384.72,4125.25 c 424.76,0 771.21,346.44 771.21,771.21 0,424.79 -346.45,771.23 -771.21,771.23 -424.79,0 -771.22,-346.44 -771.22,-771.23 0,-424.77 346.43,-771.21 771.22,-771.21" /><path
         id="path186"
         style="fill:#d28256;fill-opacity:1;fill-rule:evenodd;stroke:none"
         d="m 3346.16,4169.32 c 424.77,0 771.21,346.45 771.21,771.21 0,424.78 -346.44,771.23 -771.21,771.23 -424.79,0 -771.23,-346.45 -771.23,-771.23 0,-424.76 346.44,-771.21 771.23,-771.21" /><path
         id="path188"
         style="fill:#ecb79a;fill-opacity:1;fill-rule:evenodd;stroke:none"
         d="m 3346.16,4271.4 c 368.54,0 669.11,300.58 669.11,669.13 0,368.56 -300.57,669.15 -669.11,669.15 -368.55,0 -669.15,-300.59 -669.15,-669.15 0,-368.55 300.6,-669.13 669.15,-669.13" /><path
         id="path190"
         style="fill:#a33b1f;fill-opacity:1;fill-rule:evenodd;stroke:none"
         d="m 1770.72,1029.56 h 3150.84 v 429.66 H 1770.72 v -429.66" /><path
         id="path192"
         style="fill:#2a1813;fill-opacity:1;fill-rule:evenodd;stroke:none"
         d="m 3841.25,3960.03 150.69,-961.93 c 87.09,-47.52 151.94,-133.51 168.47,-239.11 24.37,-155.44 -63.91,-302.52 -204.22,-358.24 l -10.55,-44.11 -34.27,-143.36 -76.48,126.01 -23.52,38.75 c -150.63,10.15 -279.66,123.21 -304.01,278.66 -16.53,105.59 18.9,207.31 87.31,279.18 l -160.43,1024.15 h 407.01" /><path
         id="path194"
         style="fill:#451c14;fill-opacity:1;fill-rule:evenodd;stroke:none"
         d="m 3933.33,3372.21 58.61,-374.11 c 87.09,-47.52 151.94,-133.51 168.47,-239.11 22.91,-146.23 -53.85,-285.05 -179.85,-347.38 l -476.14,323.23 c 6.21,76.49 38.98,147.16 90.25,201.04 l -116.79,745.54 455.45,-309.21" /><path
         id="path196"
         style="fill:#bc4c1f;fill-opacity:1;fill-rule:evenodd;stroke:none"
         d="M 1478.78,599.91 H 5213.5 v 429.65 H 1478.78 V 599.91" /><path
         id="path198"
         style="fill:#d29470;fill-opacity:1;fill-rule:evenodd;stroke:none"
         d="m 3490.53,4773.94 -77.28,61.77 c -15.33,-11.29 -34.26,-17.95 -54.75,-17.95 -51.13,0 -92.56,41.44 -92.56,92.58 0,51.12 41.43,92.58 92.56,92.58 8.5,0 16.71,-1.17 24.53,-3.3 l 110.12,188.13 -55.22,32.31 102.39,87.87 102.35,87.87 -26.51,-132.26 -26.49,-132.29 -55.2,32.31 -110.13,-188.13 c 16.53,-16.73 26.75,-39.72 26.75,-65.09 0,-13.16 -2.76,-25.68 -7.71,-37.01 l 77.25,-61.76 28.13,35.22 59.48,-91.84 59.49,-91.84 -102.67,37.81 -102.67,37.82 28.14,35.2" /><path
         id="path200"
         style="fill:#f9c8ac;fill-opacity:1;fill-rule:evenodd;stroke:none"
         d="m 3346.16,4921.21 c 215.44,0 391.16,142.3 391.16,316.76 0,174.49 -175.72,316.79 -391.16,316.79 -215.46,0 -391.18,-142.3 -391.18,-316.79 0,-174.46 175.72,-316.76 391.18,-316.76" /><path
         id="path202"
         style="fill:#ecb79a;fill-opacity:1;fill-rule:evenodd;stroke:none"
         d="m 3448.5,4932.18 c -32.64,-7.15 -66.95,-10.99 -102.34,-10.99 -26.93,0 -53.22,2.2 -78.61,6.4 8.07,42.89 45.73,75.33 90.95,75.33 8.5,0 16.71,-1.17 24.53,-3.3 l 110.12,188.13 -55.22,32.31 102.39,87.87 102.35,87.87 -26.51,-132.26 -26.49,-132.29 -55.2,32.31 -110.13,-188.13 c 11.62,-11.78 20.12,-26.64 24.16,-43.25" /><path
         id="path204"
         style="fill:#f9c8ac;fill-opacity:1;fill-rule:evenodd;stroke:none"
         d="m 3346.16,4295.2 c 82.89,0 150.51,54.76 150.51,121.89 0,67.15 -67.62,121.9 -150.51,121.9 -82.91,0 -150.55,-54.75 -150.55,-121.9 0,-67.13 67.64,-121.89 150.55,-121.89" /><path
         id="path206"
         style="fill:#a33b1f;fill-opacity:1;fill-rule:evenodd;stroke:none"
         d="m 3703.24,3960.03 208.11,-1328.47 -397.29,-62.26 -217.84,1390.73 h 407.02" /><path
         id="path208"
         style="fill:#bc4c1f;fill-opacity:1;fill-rule:evenodd;stroke:none"
         d="m 3778.91,3477.06 132.44,-845.5 -207,-32.44 -218.15,148.09 -162.76,1039.03 455.47,-309.18" /><path
         id="path210"
         style="fill:#a33b1f;fill-opacity:1;fill-rule:evenodd;stroke:none"
         d="m 3790.19,2105.86 34.26,143.36 34.29,143.38 -110.74,-17.35 -110.76,-17.36 76.47,-126.02 76.48,-126.01" /><path
         id="path212"
         style="fill:#bc4c1f;fill-opacity:1;fill-rule:evenodd;stroke:none"
         d="m 3661.56,2926.95 c 180.34,28.26 349.43,-95.03 377.67,-275.38 28.26,-180.31 -95.03,-349.41 -275.36,-377.67 -180.33,-28.26 -349.43,95.03 -377.69,275.38 -28.24,180.33 95.05,349.41 275.38,377.67" /><path
         id="path214"
         style="fill:#e1662b;fill-opacity:1;fill-rule:evenodd;stroke:none"
         d="m 3732.47,2270.51 -333.7,226.53 c 46.39,-141.41 183.36,-235.71 333.7,-226.53 z m -70.91,656.44 c 180.34,28.26 349.43,-95.03 377.67,-275.38 13.83,-88.26 -8.67,-173.83 -56.38,-241.53 l -546.79,371.21 c 49.39,75.51 129.34,130.64 225.5,145.7 v 0" /><path
         id="path216"
         style="fill:#e1662b;fill-opacity:1;fill-rule:evenodd;stroke:none"
         d="m 3681.72,2798.21 c 109.24,17.1 211.66,-57.56 228.77,-166.8 17.1,-109.24 -57.56,-211.66 -166.8,-228.77 -109.24,-17.1 -211.64,57.56 -228.76,166.8 -17.11,109.24 57.57,211.66 166.79,228.77" /><path
         id="path218"
         style="fill:#f57639;fill-opacity:1;fill-rule:evenodd;stroke:none"
         d="m 3681.72,2798.21 c 109.24,17.1 211.66,-57.56 228.77,-166.8 8.49,-54.28 -5.67,-106.87 -35.47,-148.14 l -331.09,224.76 c 29.79,46.73 78.75,80.92 137.79,90.18" /><path
         id="path220"
         style="fill:#bc4c1f;fill-opacity:1;fill-rule:evenodd;stroke:none"
         d="m 3632.16,3960.03 h -92 l 140.83,-899.01 c 3.85,-24.69 27.23,-41.73 51.92,-37.85 h 0.02 c 24.68,3.86 41.73,27.22 37.85,51.92 z m -172.85,0 142.76,-911.36 c 3.88,-24.71 -13.16,-48.06 -37.87,-51.94 v 0 c -24.69,-3.86 -48.06,13.17 -51.92,37.86 l -144.97,925.44 h 92 v 0" /><path
         id="path222"
         style="fill:#e1662b;fill-opacity:1;fill-rule:evenodd;stroke:none"
         d="m 3596.41,3600.94 84.58,-539.92 c 3.85,-24.69 27.23,-41.73 51.92,-37.85 h 0.02 c 24.68,3.86 41.73,27.22 37.85,51.92 l -71.41,455.96 z m -90.46,61.41 96.12,-613.68 c 3.88,-24.71 -13.16,-48.06 -37.87,-51.94 v 0 c -24.69,-3.86 -48.06,13.17 -51.92,37.86 l -109.28,697.66 102.95,-69.9 v 0" /><path
         id="path224"
         style="fill:#892f1b;fill-opacity:1;fill-rule:evenodd;stroke:none"
         d="m 3703.24,3960.03 30.2,-192.81 h -407 l -30.22,192.81 h 407.02" /><path
         id="path226"
         style="fill:#a33b1f;fill-opacity:1;fill-rule:evenodd;stroke:none"
         d="m 3662.35,3767.22 h -91.98 l -30.21,192.81 h 92 z m -203.04,192.81 30.21,-192.81 h -92.01 l -30.2,192.81 h 92 v 0" /><path
         id="path228"
         style="fill:#892f1b;fill-opacity:1;fill-rule:evenodd;stroke:none"
         d="m 3404.19,5430.57 h 21.67 v 96.16 h -21.67 z m -44.4,0 h 21.67 v 96.16 h -21.67 v -96.16 z m -93.35,0 h 23.29 l 8.99,19.62 c 2.08,5.02 4.3,9.88 6.49,15.79 h 0.61 c 2.65,-5.91 4.85,-10.77 7.2,-15.79 l 9.6,-19.62 h 24.19 l -26.54,48.38 24.92,47.78 h -23.16 l -7.68,-18.13 c -1.9,-4.43 -3.98,-9.44 -6.19,-15.49 h -0.59 c -2.65,6.05 -4.71,11.06 -6.92,15.49 l -8.43,18.13 h -24.17 l 25.07,-46.74 -26.68,-49.42 v 0" /><path
         id="path230"
         style="fill:#892f1b;fill-opacity:1;fill-rule:evenodd;stroke:none"
         d="m 3937.72,4892.46 h 21.68 v 96.16 h -21.68 z m -44.39,0 H 3915 v 96.16 h -21.67 v -96.16 z m -44.38,0 h 21.66 v 96.16 h -21.66 v -96.16 0" /><path
         id="path232"
         style="fill:#892f1b;fill-opacity:1;fill-rule:evenodd;stroke:none"
         d="m 3349.17,4331.94 h 26.11 l 28.91,96.16 h -22.13 l -11.35,-44.83 c -2.82,-10.47 -4.86,-20.2 -7.67,-30.84 h -0.6 c -2.94,10.64 -4.87,20.37 -7.82,30.84 l -11.51,44.83 h -22.99 z m -61.05,0 h 21.67 v 96.16 h -21.67 v -96.16 0" /><path
         id="path234"
         style="fill:#892f1b;fill-opacity:1;fill-rule:evenodd;stroke:none"
         d="m 2775.76,4892.46 h 23.29 l 9,19.62 c 2.08,5 4.28,9.88 6.49,15.78 h 0.59 c 2.66,-5.9 4.86,-10.78 7.23,-15.78 l 9.59,-19.62 h 24.19 l -26.56,48.38 24.93,47.78 h -23.15 l -7.67,-18.14 c -1.9,-4.41 -3.98,-9.43 -6.19,-15.49 h -0.59 c -2.66,6.06 -4.74,11.08 -6.92,15.49 l -8.43,18.14 h -24.17 l 25.07,-46.76 z m -34.67,0 h 21.68 v 96.16 h -21.68 v -96.16 0" /><path
         id="path236"
         style="fill:#451c14;fill-opacity:1;fill-rule:evenodd;stroke:none"
         d="m 3539.21,4817.06 -30.13,-37.65 -123.69,98.91 30.11,37.63 123.71,-98.89" /><path
         id="path238"
         style="fill:#892f1b;fill-opacity:1;fill-rule:evenodd;stroke:none"
         d="m 3655.36,4693.32 -102.67,37.81 -102.67,37.81 43.19,54.02 43.2,54.03 59.48,-91.85 59.47,-91.82" /><path
         id="path240"
         style="fill:#892f1b;fill-opacity:1;fill-rule:evenodd;stroke:none"
         d="m 3504.67,5258.75 41.32,-24.18 -165.3,-282.38 -41.31,24.17 165.29,282.39" /><path
         id="path242"
         style="fill:#c74f1f;fill-opacity:1;fill-rule:evenodd;stroke:none"
         d="m 3630.29,5426.01 -26.5,-132.27 -26.49,-132.29 -75.85,44.41 -75.85,44.41 102.35,87.87 102.34,87.87" /><path
         id="path244"
         style="fill:#892f1b;fill-opacity:1;fill-rule:evenodd;stroke:none"
         d="m 3346.16,4847.96 c 51,0 92.56,41.58 92.56,92.57 0,51 -41.56,92.58 -92.56,92.58 -50.99,0 -92.6,-41.58 -92.6,-92.58 0,-50.99 41.61,-92.57 92.6,-92.57" /><path
         id="path246"
         style="fill:#b14020;fill-opacity:1;fill-rule:evenodd;stroke:none"
         d="m 3346.16,5033.11 c 51.11,0 92.56,-41.43 92.56,-92.58 0,-3.55 -0.21,-7.06 -0.59,-10.5 -29.5,-5.76 -60.31,-8.84 -91.97,-8.84 -31.7,0 -62.49,3.08 -91.99,8.84 -0.39,3.44 -0.61,6.95 -0.61,10.5 0,51.15 41.46,92.58 92.6,92.58" /><path
         id="path248"
         style="fill:#bc4c1f;fill-opacity:1;fill-rule:evenodd;stroke:none"
         d="m 3346.16,4887.17 c 29.38,0 53.36,23.97 53.36,53.36 0,29.41 -23.98,53.37 -53.36,53.37 -29.41,0 -53.36,-23.96 -53.36,-53.37 0,-29.39 23.95,-53.36 53.36,-53.36" /><path
         id="path250"
         style="fill:#d55b23;fill-opacity:1;fill-rule:evenodd;stroke:none"
         d="m 3346.16,4993.9 c 29.46,0 53.36,-23.88 53.36,-53.37 0,-5.82 -0.95,-11.44 -2.69,-16.69 -16.59,-1.74 -33.49,-2.65 -50.67,-2.65 -17.2,0 -34.1,0.91 -50.71,2.65 -1.72,5.25 -2.67,10.87 -2.67,16.69 0,29.49 23.9,53.37 53.38,53.37" /><path
         id="path252"
         style="fill:#fffbf9;fill-opacity:1;fill-rule:evenodd;stroke:none"
         d="m 3034.09,4601.03 c 38.01,0 68.85,-30.81 68.85,-68.86 0,-38.01 -30.84,-68.85 -68.85,-68.85 -38.05,0 -68.86,30.84 -68.86,68.85 0,38.05 30.81,68.86 68.86,68.86 z m -126.36,252.04 c 68.64,0 124.28,-55.66 124.28,-124.3 0,-68.64 -55.64,-124.28 -124.28,-124.28 -68.64,0 -124.28,55.64 -124.28,124.28 0,68.64 55.64,124.3 124.28,124.3 v 0" /></g></g></svg>