<?xml version="1.0" encoding="UTF-8" standalone="no"?>
<svg
   viewBox="0 0 883.28003 943.30664"
   height="943.30664"
   width="883.28003"
   xml:space="preserve"
   id="svg2"
   version="1.1"
   sodipodi:docname="RegulatorFace.svg"
   inkscape:version="1.2.2 (732a01da63, 2022-12-09)"
   inkscape:export-filename="RegulatorFace.png"
   inkscape:export-xdpi="96"
   inkscape:export-ydpi="96"
   xmlns:inkscape="http://www.inkscape.org/namespaces/inkscape"
   xmlns:sodipodi="http://sodipodi.sourceforge.net/DTD/sodipodi-0.dtd"
   xmlns="http://www.w3.org/2000/svg"
   xmlns:svg="http://www.w3.org/2000/svg"
   xmlns:rdf="http://www.w3.org/1999/02/22-rdf-syntax-ns#"
   xmlns:cc="http://creativecommons.org/ns#"
   xmlns:dc="http://purl.org/dc/elements/1.1/"><sodipodi:namedview
     id="namedview8309"
     pagecolor="#ffffff"
     bordercolor="#000000"
     borderopacity="0.25"
     inkscape:showpageshadow="2"
     inkscape:pageopacity="0.0"
     inkscape:pagecheckerboard="0"
     inkscape:deskcolor="#d1d1d1"
     showgrid="false"
     inkscape:zoom="0.92970829"
     inkscape:cx="443.68756"
     inkscape:cy="439.92294"
     inkscape:window-width="1537"
     inkscape:window-height="917"
     inkscape:window-x="140"
     inkscape:window-y="17"
     inkscape:window-maximized="0"
     inkscape:current-layer="svg2" /><metadata
     id="metadata8"><rdf:RDF><cc:Work
         rdf:about=""><dc:format>image/svg+xml</dc:format><dc:type
           rdf:resource="http://purl.org/dc/dcmitype/StillImage" /></cc:Work></rdf:RDF></metadata><defs
     id="defs6" /><g
     transform="matrix(1.3333333,0,0,-1.3333333,0,943.30667)"
     id="g10"><g
       transform="scale(0.1)"
       id="g12"><path
         id="path172"
         style="fill:#892f1b;fill-opacity:1;fill-rule:evenodd;stroke:none"
         d="m 2024.12,5865.96 h 358.05 v -440.68 h 86.28 c 170.89,308.73 499.85,517.8 877.71,517.8 377.84,0 706.81,-209.07 877.67,-517.8 h 86.29 v 440.68 h 358.04 V 1459.22 H 2024.12 v 4406.74" /><path
         id="path174"
         style="fill:#a93d1f;fill-opacity:1;fill-rule:evenodd;stroke:none"
         d="M 4668.16,2491.44 2024.12,4286.43 V 3691.51 L 4668.16,1896.53 Z M 2024.12,5865.96 h 139.99 l 218.06,-148.03 v -292.65 h 86.28 c 31.44,56.8 68.25,110.2 109.72,159.58 L 4668.16,4166 V 2910.09 L 2024.12,4705.06 v 1160.9 0" /><path
         id="path184"
         style="fill:#7e2b1a;fill-opacity:1;fill-rule:evenodd;stroke:none"
         d="m 3384.72,4125.25 c 424.76,0 771.21,346.44 771.21,771.21 0,424.79 -346.45,771.23 -771.21,771.23 -424.79,0 -771.22,-346.44 -771.22,-771.23 0,-424.77 346.43,-771.21 771.22,-771.21" /><path
         id="path186"
         style="fill:#d28256;fill-opacity:1;fill-rule:evenodd;stroke:none"
         d="m 3346.16,4169.32 c 424.77,0 771.21,346.45 771.21,771.21 0,424.78 -346.44,771.23 -771.21,771.23 -424.79,0 -771.23,-346.45 -771.23,-771.23 0,-424.76 346.44,-771.21 771.23,-771.21" /><path
         id="path188"
         style="fill:#ffffff;fill-opacity:1;fill-rule:evenodd;stroke:none"
         d="m 3346.16,4271.4 c 368.54,0 669.11,300.58 669.11,669.13 0,368.56 -300.57,669.15 -669.11,669.15 -368.55,0 -669.15,-300.59 -669.15,-669.15 0,-368.55 300.6,-669.13 669.15,-669.13" /><path
         id="path198"
         style="fill:#d29470;fill-opacity:1;fill-rule:evenodd;stroke:none"
         d="m 3490.53,4773.94 -77.28,61.77 c -15.33,-11.29 -34.26,-17.95 -54.75,-17.95 -51.13,0 -92.56,41.44 -92.56,92.58 0,51.12 41.43,92.58 92.56,92.58 8.5,0 16.71,-1.17 24.53,-3.3 l 110.12,188.13 -55.22,32.31 102.39,87.87 102.35,87.87 -26.51,-132.26 -26.49,-132.29 -55.2,32.31 -110.13,-188.13 c 16.53,-16.73 26.75,-39.72 26.75,-65.09 0,-13.16 -2.76,-25.68 -7.71,-37.01 l 77.25,-61.76 28.13,35.22 59.48,-91.84 59.49,-91.84 -102.67,37.81 -102.67,37.82 28.14,35.2" /><path
         id="path202"
         style="fill:#ecb79a;fill-opacity:1;fill-rule:evenodd;stroke:none"
         d="m 3448.5,4932.18 c -32.64,-7.15 -66.95,-10.99 -102.34,-10.99 -26.93,0 -53.22,2.2 -78.61,6.4 8.07,42.89 45.73,75.33 90.95,75.33 8.5,0 16.71,-1.17 24.53,-3.3 l 110.12,188.13 -55.22,32.31 102.39,87.87 102.35,87.87 -26.51,-132.26 -26.49,-132.29 -55.2,32.31 -110.13,-188.13 c 11.62,-11.78 20.12,-26.64 24.16,-43.25" /><path
         id="path228"
         style="fill:#000000;fill-opacity:1;fill-rule:evenodd;stroke:none"
         d="m 3404.19,5430.57 h 21.67 v 96.16 h -21.67 z m -44.4,0 h 21.67 v 96.16 h -21.67 v -96.16 z m -93.35,0 h 23.29 l 8.99,19.62 c 2.08,5.02 4.3,9.88 6.49,15.79 h 0.61 c 2.65,-5.91 4.85,-10.77 7.2,-15.79 l 9.6,-19.62 h 24.19 l -26.54,48.38 24.92,47.78 h -23.16 l -7.68,-18.13 c -1.9,-4.43 -3.98,-9.44 -6.19,-15.49 h -0.59 c -2.65,6.05 -4.71,11.06 -6.92,15.49 l -8.43,18.13 h -24.17 l 25.07,-46.74 -26.68,-49.42 v 0" /><path
         id="path230"
         style="fill:#000000;fill-opacity:1;fill-rule:evenodd;stroke:none"
         d="m 3937.72,4892.46 h 21.68 v 96.16 h -21.68 z m -44.39,0 H 3915 v 96.16 h -21.67 v -96.16 z m -44.38,0 h 21.66 v 96.16 h -21.66 v -96.16 0" /><path
         id="path232"
         style="fill:#000000;fill-opacity:1;fill-rule:evenodd;stroke:none"
         d="m 3349.17,4331.94 h 26.11 l 28.91,96.16 h -22.13 l -11.35,-44.83 c -2.82,-10.47 -4.86,-20.2 -7.67,-30.84 h -0.6 c -2.94,10.64 -4.87,20.37 -7.82,30.84 l -11.51,44.83 h -22.99 z m -61.05,0 h 21.67 v 96.16 h -21.67 v -96.16 0" /><path
         id="path234"
         style="fill:#000000;fill-opacity:1;fill-rule:evenodd;stroke:none"
         d="m 2775.76,4892.46 h 23.29 l 9,19.62 c 2.08,5 4.28,9.88 6.49,15.78 h 0.59 c 2.66,-5.9 4.86,-10.78 7.23,-15.78 l 9.59,-19.62 h 24.19 l -26.56,48.38 24.93,47.78 h -23.15 l -7.67,-18.14 c -1.9,-4.41 -3.98,-9.43 -6.19,-15.49 h -0.59 c -2.66,6.06 -4.74,11.08 -6.92,15.49 l -8.43,18.14 h -24.17 l 25.07,-46.76 z m -34.67,0 h 21.68 v 96.16 h -21.68 v -96.16 0" /><path
         id="path236"
         style="fill:#000000;fill-opacity:1;fill-rule:evenodd;stroke:none"
         d="m 3539.21,4817.06 -30.13,-37.65 -123.69,98.91 30.11,37.63 123.71,-98.89" /><path
         id="path238"
         style="fill:#000000;fill-opacity:1;fill-rule:evenodd;stroke:none"
         d="m 3655.36,4693.32 -102.67,37.81 -102.67,37.81 43.19,54.02 43.2,54.03 59.48,-91.85 59.47,-91.82" /><path
         id="path240"
         style="fill:#000000;fill-opacity:1;fill-rule:evenodd;stroke:none"
         d="m 3504.67,5258.75 41.32,-24.18 -165.3,-282.38 -41.31,24.17 165.29,282.39" /><path
         id="path242"
         style="fill:#000000;fill-opacity:1;fill-rule:evenodd;stroke:none"
         d="m 3630.29,5426.01 -26.5,-132.27 -26.49,-132.29 -75.85,44.41 -75.85,44.41 102.35,87.87 102.34,87.87" /><path
         id="path244"
         style="fill:#000000;fill-opacity:1;fill-rule:evenodd;stroke:none"
         d="m 3346.16,4847.96 c 51,0 92.56,41.58 92.56,92.57 0,51 -41.56,92.58 -92.56,92.58 -50.99,0 -92.6,-41.58 -92.6,-92.58 0,-50.99 41.61,-92.57 92.6,-92.57" /><path
         id="path246"
         style="fill:#000000;fill-opacity:1;fill-rule:evenodd;stroke:none"
         d="m 3346.16,5033.11 c 51.11,0 92.56,-41.43 92.56,-92.58 0,-3.55 -0.21,-7.06 -0.59,-10.5 -29.5,-5.76 -60.31,-8.84 -91.97,-8.84 -31.7,0 -62.49,3.08 -91.99,8.84 -0.39,3.44 -0.61,6.95 -0.61,10.5 0,51.15 41.46,92.58 92.6,92.58" /><path
         id="path248"
         style="fill:#000000;fill-opacity:1;fill-rule:evenodd;stroke:none"
         d="m 3346.16,4887.17 c 29.38,0 53.36,23.97 53.36,53.36 0,29.41 -23.98,53.37 -53.36,53.37 -29.41,0 -53.36,-23.96 -53.36,-53.37 0,-29.39 23.95,-53.36 53.36,-53.36" /><path
         id="path250"
         style="fill:#000000;fill-opacity:1;fill-rule:evenodd;stroke:none"
         d="m 3346.16,4993.9 c 29.46,0 53.36,-23.88 53.36,-53.37 0,-5.82 -0.95,-11.44 -2.69,-16.69 -16.59,-1.74 -33.49,-2.65 -50.67,-2.65 -17.2,0 -34.1,0.91 -50.71,2.65 -1.72,5.25 -2.67,10.87 -2.67,16.69 0,29.49 23.9,53.37 53.38,53.37" /></g></g></svg>
