<?xml version="1.0" encoding="UTF-8" standalone="no"?>
<svg
   viewBox="0 0 883.28003 943.30664"
   height="943.30664"
   width="883.28003"
   xml:space="preserve"
   id="svg2"
   version="1.1"
   sodipodi:docname="Regulator.svg"
   inkscape:version="1.2.2 (732a01da63, 2022-12-09)"
   inkscape:export-filename="Regulator.png"
   inkscape:export-xdpi="96"
   inkscape:export-ydpi="96"
   xmlns:inkscape="http://www.inkscape.org/namespaces/inkscape"
   xmlns:sodipodi="http://sodipodi.sourceforge.net/DTD/sodipodi-0.dtd"
   xmlns="http://www.w3.org/2000/svg"
   xmlns:svg="http://www.w3.org/2000/svg"
   xmlns:rdf="http://www.w3.org/1999/02/22-rdf-syntax-ns#"
   xmlns:cc="http://creativecommons.org/ns#"
   xmlns:dc="http://purl.org/dc/elements/1.1/"><sodipodi:namedview
     id="namedview8309"
     pagecolor="#ffffff"
     bordercolor="#000000"
     borderopacity="0.25"
     inkscape:showpageshadow="2"
     inkscape:pageopacity="0.0"
     inkscape:pagecheckerboard="0"
     inkscape:deskcolor="#d1d1d1"
     showgrid="false"
     inkscape:zoom="0.92970829"
     inkscape:cx="442.07415"
     inkscape:cy="438.84733"
     inkscape:window-width="1840"
     inkscape:window-height="1057"
     inkscape:window-x="-8"
     inkscape:window-y="-8"
     inkscape:window-maximized="1"
     inkscape:current-layer="svg2" /><metadata
     id="metadata8"><rdf:RDF><cc:Work
         rdf:about=""><dc:format>image/svg+xml</dc:format><dc:type
           rdf:resource="http://purl.org/dc/dcmitype/StillImage" /></cc:Work></rdf:RDF></metadata><defs
     id="defs6" /><g
     transform="matrix(1.3333333,0,0,-1.3333333,0,943.30667)"
     id="g10"><g
       transform="scale(0.1)"
       id="g12"><path
         id="path172"
         style="fill:#892f1b;fill-opacity:1;fill-rule:evenodd;stroke:none"
         d="m 2024.12,5865.96 h 358.05 v -440.68 h 86.28 c 170.89,308.73 499.85,517.8 877.71,517.8 377.84,0 706.81,-209.07 877.67,-517.8 h 86.29 v 440.68 h 358.04 V 1459.22 H 2024.12 v 4406.74" /><path
         id="path174"
         style="fill:#a93d1f;fill-opacity:1;fill-rule:evenodd;stroke:none"
         d="M 4668.16,2491.44 2024.12,4286.43 V 3691.51 L 4668.16,1896.53 Z M 2024.12,5865.96 h 139.99 l 218.06,-148.03 v -292.65 h 86.28 c 31.44,56.8 68.25,110.2 109.72,159.58 L 4668.16,4166 V 2910.09 L 2024.12,4705.06 v 1160.9 0" /><path
         id="path176"
         style="fill:#2a1813;fill-opacity:1;fill-rule:evenodd;stroke:none"
         d="M 2398.68,3960.03 V 1833.79 H 4293.6 V 3960.03 H 2398.68" /><path
         id="path178"
         style="fill:#451c14;fill-opacity:1;fill-rule:evenodd;stroke:none"
         d="M 2398.68,3175.97 4293.6,1889.57 v -55.78 h -565.72 l -1329.2,902.34 z m 0,784.06 V 3485.5 L 4293.6,2199.1 v 928.53 l -1226.14,832.4 h -668.78 v 0" /><path
         id="path180"
         style="fill:#451c14;fill-opacity:1;fill-rule:evenodd;stroke:none"
         d="M 2712.68,1833.79 H 4293.6 V 3629.52 H 2712.68 V 1833.79" /><path
         id="path182"
         style="fill:#652815;fill-opacity:1;fill-rule:evenodd;stroke:none"
         d="M 4293.6,2199.1 2712.68,3272.34 v 357.18 h 841.63 l 739.29,-501.89 z m -565.72,-365.31 h 565.72 v 55.78 L 2712.68,2962.81 v -439.83 l 1015.2,-689.19 v 0" /><path
         id="path184"
         style="fill:#7e2b1a;fill-opacity:1;fill-rule:evenodd;stroke:none"
         d="m 3384.72,4125.25 c 424.76,0 771.21,346.44 771.21,771.21 0,424.79 -346.45,771.23 -771.21,771.23 -424.79,0 -771.22,-346.44 -771.22,-771.23 0,-424.77 346.43,-771.21 771.22,-771.21" /><path
         id="path186"
         style="fill:#d28256;fill-opacity:1;fill-rule:evenodd;stroke:none"
         d="m 3346.16,4169.32 c 424.77,0 771.21,346.45 771.21,771.21 0,424.78 -346.44,771.23 -771.21,771.23 -424.79,0 -771.23,-346.45 -771.23,-771.23 0,-424.76 346.44,-771.21 771.23,-771.21" /><path
         id="path188"
         style="fill:#ecb79a;fill-opacity:1;fill-rule:evenodd;stroke:none"
         d="m 3346.16,4271.4 c 368.54,0 669.11,300.58 669.11,669.13 0,368.56 -300.57,669.15 -669.11,669.15 -368.55,0 -669.15,-300.59 -669.15,-669.15 0,-368.55 300.6,-669.13 669.15,-669.13" /><path
         id="path190"
         style="fill:#a33b1f;fill-opacity:1;fill-rule:evenodd;stroke:none"
         d="m 1770.72,1029.56 h 3150.84 v 429.66 H 1770.72 v -429.66" /><path
         id="path192"
         style="fill:#2a1813;fill-opacity:1;fill-rule:evenodd;stroke:none"
         d="m 3841.25,3960.03 150.69,-961.93 c 87.09,-47.52 151.94,-133.51 168.47,-239.11 24.37,-155.44 -63.91,-302.52 -204.22,-358.24 l -10.55,-44.11 -34.27,-143.36 -76.48,126.01 -23.52,38.75 c -150.63,10.15 -279.66,123.21 -304.01,278.66 -16.53,105.59 18.9,207.31 87.31,279.18 l -160.43,1024.15 h 407.01" /><path
         id="path194"
         style="fill:#451c14;fill-opacity:1;fill-rule:evenodd;stroke:none"
         d="m 3933.33,3372.21 58.61,-374.11 c 87.09,-47.52 151.94,-133.51 168.47,-239.11 22.91,-146.23 -53.85,-285.05 -179.85,-347.38 l -476.14,323.23 c 6.21,76.49 38.98,147.16 90.25,201.04 l -116.79,745.54 455.45,-309.21" /><path
         id="path196"
         style="fill:#bc4c1f;fill-opacity:1;fill-rule:evenodd;stroke:none"
         d="M 1478.78,599.91 H 5213.5 v 429.65 H 1478.78 V 599.91" /><path
         id="path198"
         style="fill:#d29470;fill-opacity:1;fill-rule:evenodd;stroke:none"
         d="m 3490.53,4773.94 -77.28,61.77 c -15.33,-11.29 -34.26,-17.95 -54.75,-17.95 -51.13,0 -92.56,41.44 -92.56,92.58 0,51.12 41.43,92.58 92.56,92.58 8.5,0 16.71,-1.17 24.53,-3.3 l 110.12,188.13 -55.22,32.31 102.39,87.87 102.35,87.87 -26.51,-132.26 -26.49,-132.29 -55.2,32.31 -110.13,-188.13 c 16.53,-16.73 26.75,-39.72 26.75,-65.09 0,-13.16 -2.76,-25.68 -7.71,-37.01 l 77.25,-61.76 28.13,35.22 59.48,-91.84 59.49,-91.84 -102.67,37.81 -102.67,37.82 28.14,35.2" /><path
         id="path200"
         style="fill:#f9c8ac;fill-opacity:1;fill-rule:evenodd;stroke:none"
         d="m 3346.16,4921.21 c 215.44,0 391.16,142.3 391.16,316.76 0,174.49 -175.72,316.79 -391.16,316.79 -215.46,0 -391.18,-142.3 -391.18,-316.79 0,-174.46 175.72,-316.76 391.18,-316.76" /><path
         id="path202"
         style="fill:#ecb79a;fill-opacity:1;fill-rule:evenodd;stroke:none"
         d="m 3448.5,4932.18 c -32.64,-7.15 -66.95,-10.99 -102.34,-10.99 -26.93,0 -53.22,2.2 -78.61,6.4 8.07,42.89 45.73,75.33 90.95,75.33 8.5,0 16.71,-1.17 24.53,-3.3 l 110.12,188.13 -55.22,32.31 102.39,87.87 102.35,87.87 -26.51,-132.26 -26.49,-132.29 -55.2,32.31 -110.13,-188.13 c 11.62,-11.78 20.12,-26.64 24.16,-43.25" /><path
         id="path204"
         style="fill:#f9c8ac;fill-opacity:1;fill-rule:evenodd;stroke:none"
         d="m 3346.16,4295.2 c 82.89,0 150.51,54.76 150.51,121.89 0,67.15 -67.62,121.9 -150.51,121.9 -82.91,0 -150.55,-54.75 -150.55,-121.9 0,-67.13 67.64,-121.89 150.55,-121.89" /><path
         id="path206"
         style="fill:#a33b1f;fill-opacity:1;fill-rule:evenodd;stroke:none"
         d="m 3703.24,3960.03 208.11,-1328.47 -397.29,-62.26 -217.84,1390.73 h 407.02" /><path
         id="path208"
         style="fill:#bc4c1f;fill-opacity:1;fill-rule:evenodd;stroke:none"
         d="m 3778.91,3477.06 132.44,-845.5 -207,-32.44 -218.15,148.09 -162.76,1039.03 455.47,-309.18" /><path
         id="path210"
         style="fill:#a33b1f;fill-opacity:1;fill-rule:evenodd;stroke:none"
         d="m 3790.19,2105.86 34.26,143.36 34.29,143.38 -110.74,-17.35 -110.76,-17.36 76.47,-126.02 76.48,-126.01" /><path
         id="path212"
         style="fill:#bc4c1f;fill-opacity:1;fill-rule:evenodd;stroke:none"
         d="m 3661.56,2926.95 c 180.34,28.26 349.43,-95.03 377.67,-275.38 28.26,-180.31 -95.03,-349.41 -275.36,-377.67 -180.33,-28.26 -349.43,95.03 -377.69,275.38 -28.24,180.33 95.05,349.41 275.38,377.67" /><path
         id="path214"
         style="fill:#e1662b;fill-opacity:1;fill-rule:evenodd;stroke:none"
         d="m 3732.47,2270.51 -333.7,226.53 c 46.39,-141.41 183.36,-235.71 333.7,-226.53 z m -70.91,656.44 c 180.34,28.26 349.43,-95.03 377.67,-275.38 13.83,-88.26 -8.67,-173.83 -56.38,-241.53 l -546.79,371.21 c 49.39,75.51 129.34,130.64 225.5,145.7 v 0" /><path
         id="path216"
         style="fill:#e1662b;fill-opacity:1;fill-rule:evenodd;stroke:none"
         d="m 3681.72,2798.21 c 109.24,17.1 211.66,-57.56 228.77,-166.8 17.1,-109.24 -57.56,-211.66 -166.8,-228.77 -109.24,-17.1 -211.64,57.56 -228.76,166.8 -17.11,109.24 57.57,211.66 166.79,228.77" /><path
         id="path218"
         style="fill:#f57639;fill-opacity:1;fill-rule:evenodd;stroke:none"
         d="m 3681.72,2798.21 c 109.24,17.1 211.66,-57.56 228.77,-166.8 8.49,-54.28 -5.67,-106.87 -35.47,-148.14 l -331.09,224.76 c 29.79,46.73 78.75,80.92 137.79,90.18" /><path
         id="path220"
         style="fill:#bc4c1f;fill-opacity:1;fill-rule:evenodd;stroke:none"
         d="m 3632.16,3960.03 h -92 l 140.83,-899.01 c 3.85,-24.69 27.23,-41.73 51.92,-37.85 h 0.02 c 24.68,3.86 41.73,27.22 37.85,51.92 z m -172.85,0 142.76,-911.36 c 3.88,-24.71 -13.16,-48.06 -37.87,-51.94 v 0 c -24.69,-3.86 -48.06,13.17 -51.92,37.86 l -144.97,925.44 h 92 v 0" /><path
         id="path222"
         style="fill:#e1662b;fill-opacity:1;fill-rule:evenodd;stroke:none"
         d="m 3596.41,3600.94 84.58,-539.92 c 3.85,-24.69 27.23,-41.73 51.92,-37.85 h 0.02 c 24.68,3.86 41.73,27.22 37.85,51.92 l -71.41,455.96 z m -90.46,61.41 96.12,-613.68 c 3.88,-24.71 -13.16,-48.06 -37.87,-51.94 v 0 c -24.69,-3.86 -48.06,13.17 -51.92,37.86 l -109.28,697.66 102.95,-69.9 v 0" /><path
         id="path224"
         style="fill:#892f1b;fill-opacity:1;fill-rule:evenodd;stroke:none"
         d="m 3703.24,3960.03 30.2,-192.81 h -407 l -30.22,192.81 h 407.02" /><path
         id="path226"
         style="fill:#a33b1f;fill-opacity:1;fill-rule:evenodd;stroke:none"
         d="m 3662.35,3767.22 h -91.98 l -30.21,192.81 h 92 z m -203.04,192.81 30.21,-192.81 h -92.01 l -30.2,192.81 h 92 v 0" /><path
         id="path228"
         style="fill:#892f1b;fill-opacity:1;fill-rule:evenodd;stroke:none"
         d="m 3404.19,5430.57 h 21.67 v 96.16 h -21.67 z m -44.4,0 h 21.67 v 96.16 h -21.67 v -96.16 z m -93.35,0 h 23.29 l 8.99,19.62 c 2.08,5.02 4.3,9.88 6.49,15.79 h 0.61 c 2.65,-5.91 4.85,-10.77 7.2,-15.79 l 9.6,-19.62 h 24.19 l -26.54,48.38 24.92,47.78 h -23.16 l -7.68,-18.13 c -1.9,-4.43 -3.98,-9.44 -6.19,-15.49 h -0.59 c -2.65,6.05 -4.71,11.06 -6.92,15.49 l -8.43,18.13 h -24.17 l 25.07,-46.74 -26.68,-49.42 v 0" /><path
         id="path230"
         style="fill:#892f1b;fill-opacity:1;fill-rule:evenodd;stroke:none"
         d="m 3937.72,4892.46 h 21.68 v 96.16 h -21.68 z m -44.39,0 H 3915 v 96.16 h -21.67 v -96.16 z m -44.38,0 h 21.66 v 96.16 h -21.66 v -96.16 0" /><path
         id="path232"
         style="fill:#892f1b;fill-opacity:1;fill-rule:evenodd;stroke:none"
         d="m 3349.17,4331.94 h 26.11 l 28.91,96.16 h -22.13 l -11.35,-44.83 c -2.82,-10.47 -4.86,-20.2 -7.67,-30.84 h -0.6 c -2.94,10.64 -4.87,20.37 -7.82,30.84 l -11.51,44.83 h -22.99 z m -61.05,0 h 21.67 v 96.16 h -21.67 v -96.16 0" /><path
         id="path234"
         style="fill:#892f1b;fill-opacity:1;fill-rule:evenodd;stroke:none"
         d="m 2775.76,4892.46 h 23.29 l 9,19.62 c 2.08,5 4.28,9.88 6.49,15.78 h 0.59 c 2.66,-5.9 4.86,-10.78 7.23,-15.78 l 9.59,-19.62 h 24.19 l -26.56,48.38 24.93,47.78 h -23.15 l -7.67,-18.14 c -1.9,-4.41 -3.98,-9.43 -6.19,-15.49 h -0.59 c -2.66,6.06 -4.74,11.08 -6.92,15.49 l -8.43,18.14 h -24.17 l 25.07,-46.76 z m -34.67,0 h 21.68 v 96.16 h -21.68 v -96.16 0" /><path
         id="path236"
         style="fill:#451c14;fill-opacity:1;fill-rule:evenodd;stroke:none"
         d="m 3539.21,4817.06 -30.13,-37.65 -123.69,98.91 30.11,37.63 123.71,-98.89" /><path
         id="path238"
         style="fill:#892f1b;fill-opacity:1;fill-rule:evenodd;stroke:none"
         d="m 3655.36,4693.32 -102.67,37.81 -102.67,37.81 43.19,54.02 43.2,54.03 59.48,-91.85 59.47,-91.82" /><path
         id="path240"
         style="fill:#892f1b;fill-opacity:1;fill-rule:evenodd;stroke:none"
         d="m 3504.67,5258.75 41.32,-24.18 -165.3,-282.38 -41.31,24.17 165.29,282.39" /><path
         id="path242"
         style="fill:#c74f1f;fill-opacity:1;fill-rule:evenodd;stroke:none"
         d="m 3630.29,5426.01 -26.5,-132.27 -26.49,-132.29 -75.85,44.41 -75.85,44.41 102.35,87.87 102.34,87.87" /><path
         id="path244"
         style="fill:#892f1b;fill-opacity:1;fill-rule:evenodd;stroke:none"
         d="m 3346.16,4847.96 c 51,0 92.56,41.58 92.56,92.57 0,51 -41.56,92.58 -92.56,92.58 -50.99,0 -92.6,-41.58 -92.6,-92.58 0,-50.99 41.61,-92.57 92.6,-92.57" /><path
         id="path246"
         style="fill:#b14020;fill-opacity:1;fill-rule:evenodd;stroke:none"
         d="m 3346.16,5033.11 c 51.11,0 92.56,-41.43 92.56,-92.58 0,-3.55 -0.21,-7.06 -0.59,-10.5 -29.5,-5.76 -60.31,-8.84 -91.97,-8.84 -31.7,0 -62.49,3.08 -91.99,8.84 -0.39,3.44 -0.61,6.95 -0.61,10.5 0,51.15 41.46,92.58 92.6,92.58" /><path
         id="path248"
         style="fill:#bc4c1f;fill-opacity:1;fill-rule:evenodd;stroke:none"
         d="m 3346.16,4887.17 c 29.38,0 53.36,23.97 53.36,53.36 0,29.41 -23.98,53.37 -53.36,53.37 -29.41,0 -53.36,-23.96 -53.36,-53.37 0,-29.39 23.95,-53.36 53.36,-53.36" /><path
         id="path250"
         style="fill:#d55b23;fill-opacity:1;fill-rule:evenodd;stroke:none"
         d="m 3346.16,4993.9 c 29.46,0 53.36,-23.88 53.36,-53.37 0,-5.82 -0.95,-11.44 -2.69,-16.69 -16.59,-1.74 -33.49,-2.65 -50.67,-2.65 -17.2,0 -34.1,0.91 -50.71,2.65 -1.72,5.25 -2.67,10.87 -2.67,16.69 0,29.49 23.9,53.37 53.38,53.37" /><path
         id="path252"
         style="fill:#fffbf9;fill-opacity:1;fill-rule:evenodd;stroke:none"
         d="m 3034.09,4601.03 c 38.01,0 68.85,-30.81 68.85,-68.86 0,-38.01 -30.84,-68.85 -68.85,-68.85 -38.05,0 -68.86,30.84 -68.86,68.85 0,38.05 30.81,68.86 68.86,68.86 z m -126.36,252.04 c 68.64,0 124.28,-55.66 124.28,-124.3 0,-68.64 -55.64,-124.28 -124.28,-124.28 -68.64,0 -124.28,55.64 -124.28,124.28 0,68.64 55.64,124.3 124.28,124.3 v 0" /></g></g></svg>
